<svg width="137" height="40" viewBox="0 0 137 40" fill="none" xmlns="http://www.w3.org/2000/svg">
<path d="M14.4086 36.144C13.126 36.144 11.9473 36.0227 10.8726 35.78C9.79796 35.5373 8.96596 35.104 8.37663 34.48C8.23796 34.5147 7.97796 34.48 7.59663 34.376C7.24996 34.2373 6.93796 34.012 6.66063 33.7C6.03663 32.972 5.72463 31.9493 5.72463 30.632C5.72463 29.8347 5.86329 29.0547 6.14062 28.292C6.41796 27.4947 6.88596 26.7667 7.54463 26.108C8.44596 25.2067 9.64196 24.3227 11.1326 23.456C12.6233 22.5547 14.3913 21.74 16.4366 21.012C17.4073 19.244 18.4993 17.4587 19.7126 15.656C20.9606 13.8533 22.226 12.1547 23.5086 10.56C24.7913 8.96533 25.9526 7.596 26.9926 6.452C25.1206 6.48666 23.3006 6.59066 21.5326 6.764C19.7993 6.93733 18.274 7.11066 16.9566 7.284C15.466 7.45733 13.9406 7.752 12.3806 8.168C10.8206 8.584 9.36463 9.08667 8.01263 9.676C6.69529 10.2307 5.62063 10.8373 4.78863 11.496C3.99129 12.12 3.59263 12.744 3.59263 13.368C3.59263 13.5413 3.69663 13.6973 3.90463 13.836C4.11263 13.9747 4.33796 14.044 4.58063 14.044C4.68463 14.148 4.73663 14.2347 4.73663 14.304C4.73663 14.4773 4.54596 14.5293 4.16463 14.46C3.78329 14.3907 3.29796 14.1653 2.70863 13.784C2.15396 13.368 1.65129 12.8827 1.20063 12.328C0.784625 11.7733 0.576625 11.288 0.576625 10.872C0.576625 10.1787 0.975292 9.53733 1.77263 8.948C2.60463 8.324 3.69663 7.76933 5.04863 7.284C6.43529 6.764 7.97796 6.33066 9.67663 5.984C11.3753 5.60267 13.1086 5.308 14.8766 5.1C16.1246 4.96133 17.6153 4.85733 19.3486 4.788C21.1166 4.684 22.954 4.632 24.8606 4.632C25.5193 4.632 26.1606 4.632 26.7846 4.632C27.4086 4.632 28.05 4.64933 28.7086 4.684L28.8126 4.58C28.6046 4.372 28.5006 4.12933 28.5006 3.852C28.5006 3.40133 28.726 2.968 29.1766 2.552C29.662 2.10133 30.182 1.70267 30.7366 1.356C31.2913 0.974665 31.7246 0.662664 32.0366 0.419999C32.3486 0.419999 32.782 0.506665 33.3366 0.679999C33.8913 0.818666 34.3766 1.02667 34.7926 1.304C35.2433 1.58133 35.4686 1.928 35.4686 2.344C35.4686 2.51733 35.434 2.708 35.3646 2.916C35.2606 3.19333 35.0353 3.52266 34.6886 3.904C34.342 4.28533 33.926 4.684 33.4406 5.1C34.8966 5.27333 36.2313 5.516 37.4446 5.828C38.6926 6.14 39.7326 6.53866 40.5646 7.024C42.298 8.02933 43.598 9.26 44.4646 10.716C45.366 12.1373 45.8166 13.6627 45.8166 15.292C45.8166 16.9213 45.3833 18.5333 44.5166 20.128C43.5806 21.8613 42.2806 23.56 40.6166 25.224C38.9526 26.8533 37.046 28.3613 34.8966 29.748C32.7473 31.1347 30.4593 32.3307 28.0326 33.336C25.606 34.3413 23.162 35.0693 20.7006 35.52C19.73 35.6933 18.69 35.832 17.5806 35.936C16.506 36.0747 15.4486 36.144 14.4086 36.144ZM13.4206 34.896C14.634 34.896 15.882 34.74 17.1646 34.428C18.4473 34.116 19.574 33.7693 20.5446 33.388C22.6246 32.556 24.7566 31.5333 26.9406 30.32C29.1246 29.1067 31.2046 27.824 33.1806 26.472C35.1913 25.12 36.942 23.8027 38.4326 22.52C39.958 21.2027 41.0846 20.0413 41.8126 19.036C42.5406 18.0307 43.0953 17.0253 43.4766 16.02C43.8926 15.0147 44.1006 14.0787 44.1006 13.212C44.1006 11.444 43.1646 9.95333 41.2926 8.74C39.4553 7.492 36.318 6.74667 31.8806 6.504C31.326 6.95467 30.858 7.37066 30.4766 7.752C29.61 8.61867 28.57 9.71067 27.3566 11.028C26.1433 12.3107 24.878 13.7147 23.5606 15.24C22.278 16.7653 21.0646 18.3427 19.9206 19.972C20.718 19.7293 21.55 19.5213 22.4166 19.348C23.318 19.14 24.2366 18.9667 25.1726 18.828C25.3806 18.7587 25.5366 18.724 25.6406 18.724C25.918 18.724 26.0566 18.828 26.0566 19.036C26.0566 19.2787 25.918 19.452 25.6406 19.556C24.4273 19.7293 23.266 19.9547 22.1566 20.232C21.082 20.4747 20.0593 20.7867 19.0886 21.168C18.0833 22.6933 17.2686 24.2013 16.6446 25.692C16.0206 27.148 15.7086 28.5 15.7086 29.748C15.7086 30.4067 15.8126 30.9787 16.0206 31.464C16.2286 31.9147 16.714 32.14 17.4766 32.14V32.556C17.2686 32.66 17.0433 32.712 16.8006 32.712C16.2113 32.712 15.6913 32.4867 15.2406 32.036C14.79 31.5507 14.4433 30.996 14.2006 30.372C13.958 29.7133 13.8366 29.1413 13.8366 28.656C13.8366 27.8587 13.9753 26.9573 14.2526 25.952C14.5646 24.9467 14.998 23.8893 15.5526 22.78C13.4033 23.9587 11.722 25.276 10.5086 26.732C9.32996 28.1533 8.67129 29.4707 8.53263 30.684C8.53263 30.788 8.51529 30.892 8.48063 30.996C8.48063 31.1 8.48063 31.204 8.48063 31.308C8.48063 32.66 8.96596 33.596 9.93663 34.116C10.942 34.636 12.1033 34.896 13.4206 34.896ZM53.6089 20.492C52.9502 20.3533 52.3436 20.0067 51.7889 19.452C51.2689 18.8973 51.0782 18.2733 51.2169 17.58C51.2862 17.1987 51.4249 16.956 51.6329 16.852C51.8409 16.748 52.2222 16.6613 52.7769 16.592C53.4009 16.5227 53.8169 16.4707 54.0249 16.436C54.2676 16.4013 54.4929 16.3667 54.7009 16.332C54.9436 16.2627 55.3769 16.176 56.0009 16.072C56.1396 16.0373 56.3129 15.9507 56.5209 15.812C56.7289 15.6733 56.7982 15.76 56.7289 16.072C56.7289 16.2107 56.6076 16.384 56.3649 16.592C56.1569 16.7653 55.9662 16.8867 55.7929 16.956C55.4116 17.1293 54.9782 17.3373 54.4929 17.58C54.0422 17.8227 53.6956 18.152 53.4529 18.568C53.3489 18.776 53.2969 18.9667 53.2969 19.14C53.2969 19.6253 53.4702 19.9027 53.8169 19.972C53.8862 19.972 53.9209 20.024 53.9209 20.128C53.9209 20.1973 53.8862 20.284 53.8169 20.388C53.7476 20.492 53.6782 20.5267 53.6089 20.492ZM47.1609 35.728C45.8782 35.728 44.9769 35.3293 44.4569 34.532C43.9716 33.7347 43.7289 32.7987 43.7289 31.724C43.7289 30.0947 44.0236 28.7427 44.6129 27.668C44.2662 27.4947 44.1796 27.2867 44.3529 27.044C44.7689 26.4893 45.2542 25.8307 45.8089 25.068C46.3636 24.3053 46.9009 23.612 47.4209 22.988C47.9756 22.364 48.4262 22 48.7729 21.896C48.8769 21.8613 49.0156 21.844 49.1889 21.844C49.7436 21.844 50.2462 22.0347 50.6969 22.416C51.1822 22.7973 51.4942 23.04 51.6329 23.144C50.8009 23.976 49.9689 24.9293 49.1369 26.004C48.3396 27.0787 47.6636 28.2227 47.1089 29.436C46.5542 30.6493 46.2769 31.88 46.2769 33.128C46.2769 33.5787 46.3636 33.908 46.5369 34.116C46.7102 34.2893 46.9182 34.376 47.1609 34.376C47.6809 34.376 48.2182 34.1333 48.7729 33.648C49.3969 33.0933 50.1769 32.2787 51.1129 31.204C52.0836 30.0947 52.9676 29.0027 53.7649 27.928C54.2502 27.2347 54.5796 26.888 54.7529 26.888C54.9262 26.888 54.9262 27.1133 54.7529 27.564C54.6142 28.0147 54.3542 28.5347 53.9729 29.124C53.4876 29.7827 52.8982 30.632 52.2049 31.672C51.5116 32.6773 50.7662 33.5787 49.9689 34.376C49.5182 34.8267 49.0329 35.156 48.5129 35.364C48.0276 35.6067 47.5769 35.728 47.1609 35.728ZM54.5624 35.572C54.0077 35.572 53.5397 35.3813 53.1584 35C52.8117 34.6533 52.5517 34.2373 52.3784 33.752C52.205 33.2667 52.1184 32.8507 52.1184 32.504C52.1184 31.3253 52.4824 30.0773 53.2104 28.76C53.9384 27.4427 54.8744 26.212 56.0184 25.068C57.197 23.924 58.4277 22.988 59.7104 22.26C60.993 21.532 62.189 21.168 63.2984 21.168C64.0957 21.168 64.893 21.7053 65.6904 22.78C65.7597 22.884 65.829 23.0227 65.8984 23.196C66.0024 23.3693 66.0544 23.5427 66.0544 23.716C66.0544 24.028 65.933 24.236 65.6904 24.34C65.6557 24.3747 65.569 24.2707 65.4304 24.028C65.3264 23.7507 64.9624 23.612 64.3384 23.612C63.749 23.612 62.969 23.8893 61.9984 24.444C61.0277 24.9987 60.005 25.7267 58.9304 26.628C57.8904 27.5293 56.937 28.5 56.0704 29.54C55.2384 30.58 54.6317 31.5853 54.2504 32.556C54.181 32.7987 54.1117 33.0413 54.0424 33.284C53.973 33.5267 53.9384 33.7347 53.9384 33.908C53.9384 34.22 54.0424 34.376 54.2504 34.376C54.4584 34.376 54.7357 34.2547 55.0824 34.012C55.8104 33.492 56.573 32.8507 57.3704 32.088C58.1677 31.2907 58.9304 30.476 59.6584 29.644C60.421 28.7773 61.0624 27.9627 61.5824 27.2C62.1024 26.4373 62.4317 25.8133 62.5704 25.328C62.6397 25.0507 63.0384 24.912 63.7664 24.912C64.3557 24.912 64.8584 25.0507 65.2744 25.328C65.6904 25.5707 65.7944 25.848 65.5864 26.16C64.9624 27.096 64.3557 28.084 63.7664 29.124C63.177 30.1293 62.7437 31.152 62.4664 32.192C62.4317 32.3307 62.397 32.452 62.3624 32.556C62.3624 32.66 62.3624 32.7467 62.3624 32.816C62.3624 33.1627 62.501 33.336 62.7784 33.336C63.0904 33.336 63.437 33.18 63.8184 32.868C64.5464 32.1747 65.309 31.2907 66.1064 30.216C66.9384 29.1067 67.7877 28.0147 68.6544 26.94C68.9664 26.5933 69.1744 26.42 69.2784 26.42C69.3824 26.42 69.4344 26.5067 69.4344 26.68C69.4344 26.8187 69.3997 26.9573 69.3304 27.096C69.1917 27.4427 69.001 27.8067 68.7584 28.188C68.5157 28.5347 68.2904 28.8467 68.0824 29.124C67.909 29.3667 67.6144 29.8 67.1984 30.424C66.7824 31.048 66.297 31.7067 65.7424 32.4C65.1877 33.0933 64.6157 33.7 64.0264 34.22C63.437 34.7053 62.8824 34.948 62.3624 34.948C61.6344 34.948 61.045 34.7227 60.5944 34.272C60.1784 33.7867 59.9704 33.3533 59.9704 32.972C59.9704 32.4867 59.9877 32.1573 60.0224 31.984C60.0917 31.6373 60.1957 31.2213 60.3344 30.736C60.5077 30.2507 60.6637 29.7827 60.8024 29.332C60.525 29.7133 60.109 30.2507 59.5544 30.944C58.9997 31.6373 58.393 32.348 57.7344 33.076C57.1104 33.7693 56.5037 34.3587 55.9144 34.844C55.325 35.3293 54.8744 35.572 54.5624 35.572ZM82.774 39.056C81.734 39.056 81.0407 38.744 80.694 38.12C80.382 37.496 80.226 36.9067 80.226 36.352C80.226 35.1733 80.486 33.9773 81.006 32.764C81.5607 31.516 82.15 30.2853 82.774 29.072C83.0513 28.552 83.3633 27.9627 83.71 27.304C84.0567 26.6453 84.3513 26.0213 84.594 25.432C84.8367 24.8427 84.958 24.4093 84.958 24.132C84.958 23.82 84.8193 23.664 84.542 23.664C84.126 23.664 83.6233 23.9587 83.034 24.548C82.4447 25.1373 81.8033 25.9 81.11 26.836C80.4167 27.772 79.7407 28.7253 79.082 29.696C78.458 30.6667 77.9033 31.5507 77.418 32.348C76.9673 33.1453 76.6553 33.7173 76.482 34.064C76.17 34.7573 75.754 35.104 75.234 35.104C74.6793 35.104 74.0553 34.7053 73.362 33.908C73.674 33.18 74.0553 32.3133 74.506 31.308C74.9567 30.268 75.39 29.228 75.806 28.188C76.222 27.1133 76.5167 26.1773 76.69 25.38C76.7247 25.2067 76.742 25.0507 76.742 24.912C76.7767 24.7733 76.794 24.6347 76.794 24.496C76.794 23.9413 76.6553 23.664 76.378 23.664C76.1007 23.664 75.7713 23.8547 75.39 24.236C74.9047 24.652 74.298 25.3107 73.57 26.212C72.8767 27.1133 72.166 28.1013 71.438 29.176C70.7447 30.216 70.138 31.2213 69.618 32.192C69.098 33.1627 68.7687 33.96 68.63 34.584C68.5953 34.896 68.3353 35.052 67.85 35.052C67.3993 35.052 67.0007 34.8787 66.654 34.532C66.3073 34.1853 66.134 33.7173 66.134 33.128C66.134 32.9893 66.2727 32.5907 66.55 31.932C66.8273 31.2733 67.1567 30.4933 67.538 29.592C67.954 28.6907 68.3527 27.8413 68.734 27.044C69.1153 26.212 69.41 25.5707 69.618 25.12C69.3753 24.912 69.254 24.7387 69.254 24.6C69.2887 24.4613 69.3233 24.3227 69.358 24.184L70.866 21.428C70.97 21.3587 71.2993 21.2373 71.854 21.064C72.4087 20.856 72.9113 20.752 73.362 20.752C73.9513 20.752 74.246 20.96 74.246 21.376C74.246 21.6187 74.1247 21.9653 73.882 22.416C73.7433 22.624 73.466 23.092 73.05 23.82C72.634 24.548 72.1833 25.3627 71.698 26.264C71.2127 27.1653 70.7793 27.98 70.398 28.708C70.0513 29.436 69.878 29.8867 69.878 30.06C69.878 30.1987 70.0167 30.06 70.294 29.644C70.606 29.228 70.97 28.708 71.386 28.084C71.8367 27.4253 72.2527 26.8013 72.634 26.212C73.05 25.588 73.362 25.1547 73.57 24.912C74.09 24.288 74.5407 23.716 74.922 23.196C75.338 22.676 75.8753 22.416 76.534 22.416C77.5393 22.416 78.2847 22.6587 78.77 23.144C79.2553 23.6293 79.498 24.184 79.498 24.808C79.498 25.3973 79.342 26.108 79.03 26.94C78.718 27.772 78.4233 28.5 78.146 29.124C78.3887 28.916 78.8047 28.4133 79.394 27.616C79.9833 26.784 80.642 25.9 81.37 24.964C82.098 24.028 82.7913 23.2133 83.45 22.52C84.1433 21.8267 84.698 21.48 85.114 21.48C85.6687 21.48 86.206 21.6187 86.726 21.896C87.246 22.1733 87.662 22.52 87.974 22.936C88.3207 23.352 88.4593 23.7853 88.39 24.236C88.1473 25.4147 87.7313 26.4373 87.142 27.304C86.5527 28.136 85.8593 29.124 85.062 30.268C84.3687 31.3427 83.6753 32.504 82.982 33.752C82.2887 35 81.942 36.1267 81.942 37.132C81.942 37.4093 81.9767 37.652 82.046 37.86C82.15 38.1027 82.2887 38.224 82.462 38.224C82.6353 38.224 82.8953 38.0853 83.242 37.808C83.5193 37.6 83.7793 37.3573 84.022 37.08C84.2993 36.8373 84.5593 36.6467 84.802 36.508C84.9753 36.3347 85.0967 36.248 85.166 36.248C85.374 36.248 85.3913 36.404 85.218 36.716C84.9407 37.34 84.6113 37.8773 84.23 38.328C83.8487 38.8133 83.3633 39.056 82.774 39.056ZM90.3124 35.572C89.7577 35.572 89.2897 35.3813 88.9084 35C88.5617 34.6533 88.3017 34.2373 88.1284 33.752C87.955 33.2667 87.8684 32.8507 87.8684 32.504C87.8684 31.3253 88.2324 30.0773 88.9604 28.76C89.6884 27.4427 90.6244 26.212 91.7684 25.068C92.947 23.924 94.1777 22.988 95.4604 22.26C96.743 21.532 97.939 21.168 99.0484 21.168C99.8457 21.168 100.643 21.7053 101.44 22.78C101.51 22.884 101.579 23.0227 101.648 23.196C101.752 23.3693 101.804 23.5427 101.804 23.716C101.804 24.028 101.683 24.236 101.44 24.34C101.406 24.3747 101.319 24.2707 101.18 24.028C101.076 23.7507 100.712 23.612 100.088 23.612C99.499 23.612 98.719 23.8893 97.7484 24.444C96.7777 24.9987 95.755 25.7267 94.6804 26.628C93.6404 27.5293 92.687 28.5 91.8204 29.54C90.9884 30.58 90.3817 31.5853 90.0004 32.556C89.931 32.7987 89.8617 33.0413 89.7924 33.284C89.723 33.5267 89.6884 33.7347 89.6884 33.908C89.6884 34.22 89.7924 34.376 90.0004 34.376C90.2084 34.376 90.4857 34.2547 90.8324 34.012C91.5604 33.492 92.323 32.8507 93.1204 32.088C93.9177 31.2907 94.6804 30.476 95.4084 29.644C96.171 28.7773 96.8124 27.9627 97.3324 27.2C97.8524 26.4373 98.1817 25.8133 98.3204 25.328C98.3897 25.0507 98.7884 24.912 99.5164 24.912C100.106 24.912 100.608 25.0507 101.024 25.328C101.44 25.5707 101.544 25.848 101.336 26.16C100.712 27.096 100.106 28.084 99.5164 29.124C98.927 30.1293 98.4937 31.152 98.2164 32.192C98.1817 32.3307 98.147 32.452 98.1124 32.556C98.1124 32.66 98.1124 32.7467 98.1124 32.816C98.1124 33.1627 98.251 33.336 98.5284 33.336C98.8404 33.336 99.187 33.18 99.5684 32.868C100.296 32.1747 101.059 31.2907 101.856 30.216C102.688 29.1067 103.538 28.0147 104.404 26.94C104.716 26.5933 104.924 26.42 105.028 26.42C105.132 26.42 105.184 26.5067 105.184 26.68C105.184 26.8187 105.15 26.9573 105.08 27.096C104.942 27.4427 104.751 27.8067 104.508 28.188C104.266 28.5347 104.04 28.8467 103.832 29.124C103.659 29.3667 103.364 29.8 102.948 30.424C102.532 31.048 102.047 31.7067 101.492 32.4C100.938 33.0933 100.366 33.7 99.7764 34.22C99.187 34.7053 98.6324 34.948 98.1124 34.948C97.3844 34.948 96.795 34.7227 96.3444 34.272C95.9284 33.7867 95.7204 33.3533 95.7204 32.972C95.7204 32.4867 95.7377 32.1573 95.7724 31.984C95.8417 31.6373 95.9457 31.2213 96.0844 30.736C96.2577 30.2507 96.4137 29.7827 96.5524 29.332C96.275 29.7133 95.859 30.2507 95.3044 30.944C94.7497 31.6373 94.143 32.348 93.4844 33.076C92.8604 33.7693 92.2537 34.3587 91.6644 34.844C91.075 35.3293 90.6244 35.572 90.3124 35.572ZM111.504 35.624C110.741 35.624 110.1 35.3987 109.58 34.948C109.095 34.4973 108.852 33.7867 108.852 32.816C108.852 31.984 108.991 31.152 109.268 30.32C109.545 29.4533 109.84 28.6733 110.152 27.98C110.499 27.2867 110.776 26.7667 110.984 26.42C111.747 24.9987 111.989 24.288 111.712 24.288C111.469 24.288 110.915 24.7387 110.048 25.64C109.216 26.5067 108.193 27.7373 106.98 29.332C105.905 30.7187 105.195 31.8107 104.848 32.608C104.501 33.3707 104.276 33.9947 104.172 34.48C104.137 34.792 103.877 34.948 103.392 34.948C103.011 34.948 102.629 34.792 102.248 34.48C101.867 34.1333 101.676 33.6653 101.676 33.076C101.676 32.9027 101.832 32.452 102.144 31.724C102.456 30.996 102.82 30.1467 103.236 29.176C103.687 28.2053 104.12 27.2867 104.536 26.42C104.952 25.5533 105.264 24.8947 105.472 24.444C105.056 24.2013 104.969 23.8893 105.212 23.508L106.72 20.752C106.824 20.6827 107.136 20.5613 107.656 20.388C108.211 20.18 108.713 20.076 109.164 20.076C109.788 20.076 110.1 20.284 110.1 20.7C110.1 20.908 109.961 21.2547 109.684 21.74C109.58 21.9133 109.337 22.3467 108.956 23.04C108.575 23.6987 108.141 24.4787 107.656 25.38C107.205 26.2467 106.772 27.0787 106.356 27.876C105.975 28.6387 105.697 29.2107 105.524 29.592C105.524 29.6267 105.507 29.6613 105.472 29.696C105.472 29.696 105.472 29.7133 105.472 29.748C105.472 29.8867 105.593 29.7653 105.836 29.384C106.113 29.0027 106.321 28.7253 106.46 28.552C107.5 27.1307 108.575 25.8133 109.684 24.6C110.828 23.3867 112.024 22.1907 113.272 21.012C113.515 21.1507 113.861 21.2373 114.312 21.272C114.797 21.3067 115.248 21.3933 115.664 21.532C116.08 21.636 116.288 21.9133 116.288 22.364C116.288 23.0573 115.993 23.8373 115.404 24.704C114.849 25.5707 114.225 26.4547 113.532 27.356C112.873 28.2227 112.249 29.2627 111.66 30.476C111.071 31.6893 110.776 32.712 110.776 33.544C110.776 34.2373 111.001 34.584 111.452 34.584C111.66 34.584 111.937 34.48 112.284 34.272C112.561 34.0987 113.099 33.6653 113.896 32.972C114.693 32.244 115.543 31.2387 116.444 29.956C116.721 29.54 116.999 29.332 117.276 29.332C117.415 29.332 117.501 29.4013 117.536 29.54C117.571 29.644 117.553 29.7827 117.484 29.956C115.057 33.7347 113.064 35.624 111.504 35.624ZM120.207 35.728C119.444 35.728 118.768 35.4333 118.179 34.844C117.59 34.2547 117.295 33.3533 117.295 32.14C117.295 31.308 117.486 30.3027 117.867 29.124C118.283 27.9107 118.786 26.68 119.375 25.432C119.999 24.1493 120.623 22.9533 121.247 21.844C121.906 20.7 122.46 19.764 122.911 19.036H120.727C120.207 19.036 119.947 18.8627 119.947 18.516C119.947 18.3427 120.016 18.1867 120.155 18.048C120.294 17.9093 120.45 17.84 120.623 17.84H123.691C123.83 17.632 124.038 17.2853 124.315 16.8C124.627 16.28 124.939 15.7253 125.251 15.136C125.598 14.512 125.875 13.9747 126.083 13.524C126.326 13.0733 126.447 12.796 126.447 12.692C126.447 12.484 126.36 12.3453 126.187 12.276C126.048 12.2067 125.944 12.1373 125.875 12.068C125.771 11.8947 125.719 11.7733 125.719 11.704C125.719 11.5307 125.806 11.4093 125.979 11.34C126.152 11.236 126.308 11.184 126.447 11.184C126.759 11.184 127.21 11.34 127.799 11.652C128.423 11.9293 129.012 12.224 129.567 12.536C130.156 12.8133 130.52 12.9693 130.659 13.004C130.52 13.2467 130.226 13.6973 129.775 14.356C129.324 14.98 128.874 15.6387 128.423 16.332C127.972 16.9907 127.643 17.4933 127.435 17.84L135.651 17.788C136.275 17.788 136.587 17.9093 136.587 18.152C136.587 18.3253 136.431 18.516 136.119 18.724C135.807 18.8973 135.495 19.0013 135.183 19.036C134.455 19.0707 133.519 19.1053 132.375 19.14C131.266 19.14 130.208 19.1573 129.203 19.192C128.232 19.2267 127.574 19.296 127.227 19.4C126.776 19.5387 126.256 19.972 125.667 20.7C125.112 21.3933 124.523 22.2427 123.899 23.248C123.31 24.2533 122.738 25.2933 122.183 26.368C121.628 27.4427 121.16 28.4307 120.779 29.332C120.398 30.1987 120.155 30.8573 120.051 31.308C119.982 31.62 119.93 31.9147 119.895 32.192C119.86 32.4347 119.843 32.66 119.843 32.868C119.843 33.3533 119.93 33.7 120.103 33.908C120.311 34.0813 120.536 34.168 120.779 34.168C121.23 34.168 121.628 33.9947 121.975 33.648C122.599 33.0933 123.379 32.2787 124.315 31.204C125.286 30.0947 126.17 29.0027 126.967 27.928C127.452 27.2347 127.782 26.888 127.955 26.888C128.128 26.888 128.128 27.1133 127.955 27.564C127.782 28.0147 127.504 28.5347 127.123 29.124C126.672 29.7827 126.1 30.632 125.407 31.672C124.714 32.6773 123.968 33.5787 123.171 34.376C122.27 35.2773 121.282 35.728 120.207 35.728Z" fill="black"/>
</svg>
