<svg width="155" height="147" viewBox="0 0 155 147" fill="none" xmlns="http://www.w3.org/2000/svg">
<path d="M138.125 16.25H8.125V0H138.125V16.25ZM91.8125 65C85.3125 72.8 81.25 82.7125 81.25 93.4375C81.25 102.7 84.7438 112.613 89.375 121.875V130H8.125V81.25H0V65L8.125 24.375H138.125L143.813 52.8125C138.45 50.2125 132.6 48.75 126.425 48.75L124.8 40.625H21.45L16.575 65H91.8125ZM73.125 81.25H24.375V113.75H73.125V81.25ZM154.375 93.4375C154.375 114.562 125.938 146.25 125.938 146.25C125.938 146.25 97.5 114.562 97.5 93.4375C97.5 78 110.5 65 125.938 65C141.375 65 154.375 78 154.375 93.4375ZM135.688 94.25C135.688 89.375 130.813 84.5 125.938 84.5C121.062 84.5 116.187 88.5625 116.187 94.25C116.187 99.125 120.25 104 125.938 104C131.625 104 136.5 99.125 135.688 94.25Z" fill="#D9D9D9"/>
</svg>
