<svg width="159" height="170" viewBox="0 0 159 170" fill="none" xmlns="http://www.w3.org/2000/svg">
<path d="M85.1377 85.1377C97.6253 85.1377 107.749 75.0145 107.749 62.5268C107.749 50.0392 97.6253 39.916 85.1377 39.916C72.6501 39.916 62.5269 50.0392 62.5269 62.5268C62.5269 75.0145 72.6501 85.1377 85.1377 85.1377Z" stroke="#D9D9D9" stroke-width="11.3054" stroke-linecap="round" stroke-linejoin="round"/>
<path d="M6 39.9163H17.3054V28.6108C17.3054 16.1232 27.4286 6 39.9162 6H130.36C142.847 6 152.97 16.1232 152.97 28.6108V141.665C152.97 154.153 142.847 164.276 130.36 164.276H39.9162C27.4286 164.276 17.3054 154.153 17.3054 141.665V130.36H6" stroke="#D9D9D9" stroke-width="11.3054" stroke-linecap="round" stroke-linejoin="round"/>
<path d="M6 85.1377H17.3054" stroke="#D9D9D9" stroke-width="11.3054" stroke-linecap="round" stroke-linejoin="round"/>
<path d="M6 62.5273H17.3054" stroke="#D9D9D9" stroke-width="11.3054" stroke-linecap="round" stroke-linejoin="round"/>
<path d="M6 107.749H17.3054" stroke="#D9D9D9" stroke-width="11.3054" stroke-linecap="round" stroke-linejoin="round"/>
<path fill-rule="evenodd" clip-rule="evenodd" d="M119.054 119.054V107.749C119.054 95.2609 108.931 85.1377 96.4433 85.1377H73.8325C61.3449 85.1377 51.2217 95.2609 51.2217 107.749V119.054C51.2217 125.298 56.2833 130.359 62.5271 130.359H107.749C113.993 130.359 119.054 125.298 119.054 119.054Z" stroke="#D9D9D9" stroke-width="11.3054" stroke-linecap="round" stroke-linejoin="round"/>
</svg>
