<svg width="146" height="154" viewBox="0 0 146 154" fill="none" xmlns="http://www.w3.org/2000/svg">
<path fill-rule="evenodd" clip-rule="evenodd" d="M102.979 2L117.512 21.378L78.756 69.823L40 21.378L54.5771 2H102.979Z" stroke="#141414" stroke-width="3.41" stroke-linecap="round" stroke-linejoin="round"/>
<path d="M40 21.3779H117.512" stroke="#141414" stroke-width="3.41" stroke-linecap="round" stroke-linejoin="round"/>
<path d="M64.2227 21.3779L78.7562 69.8229" stroke="#141414" stroke-width="3.41" stroke-linecap="round" stroke-linejoin="round"/>
<path d="M93.2894 21.3779L78.7559 69.8229" stroke="#141414" stroke-width="3.41" stroke-linecap="round" stroke-linejoin="round"/>
<path d="M54.5762 2L64.2216 21.378L78.7551 2L93.2886 21.378L102.978 2" stroke="#141414" stroke-width="3.41" stroke-linecap="round" stroke-linejoin="round"/>
<path d="M23.4086 99.144C22.126 99.144 20.9473 99.0227 19.8726 98.78C18.798 98.5373 17.966 98.104 17.3766 97.48C17.238 97.5147 16.978 97.48 16.5966 97.376C16.25 97.2373 15.938 97.012 15.6606 96.7C15.0366 95.972 14.7246 94.9493 14.7246 93.632C14.7246 92.8347 14.8633 92.0547 15.1406 91.292C15.418 90.4947 15.886 89.7667 16.5446 89.108C17.446 88.2067 18.642 87.3227 20.1326 86.456C21.6233 85.5547 23.3913 84.74 25.4366 84.012C26.4073 82.244 27.4993 80.4587 28.7126 78.656C29.9606 76.8533 31.226 75.1547 32.5086 73.56C33.7913 71.9653 34.9526 70.596 35.9926 69.452C34.1206 69.4867 32.3006 69.5907 30.5326 69.764C28.7993 69.9373 27.274 70.1107 25.9566 70.284C24.466 70.4573 22.9406 70.752 21.3806 71.168C19.8206 71.584 18.3646 72.0867 17.0126 72.676C15.6953 73.2307 14.6206 73.8373 13.7886 74.496C12.9913 75.12 12.5926 75.744 12.5926 76.368C12.5926 76.5413 12.6966 76.6973 12.9046 76.836C13.1126 76.9747 13.338 77.044 13.5806 77.044C13.6846 77.148 13.7366 77.2347 13.7366 77.304C13.7366 77.4773 13.546 77.5293 13.1646 77.46C12.7833 77.3907 12.298 77.1653 11.7086 76.784C11.154 76.368 10.6513 75.8827 10.2006 75.328C9.78463 74.7733 9.57663 74.288 9.57663 73.872C9.57663 73.1787 9.97529 72.5373 10.7726 71.948C11.6046 71.324 12.6966 70.7693 14.0486 70.284C15.4353 69.764 16.978 69.3307 18.6766 68.984C20.3753 68.6027 22.1086 68.308 23.8766 68.1C25.1246 67.9613 26.6153 67.8573 28.3486 67.788C30.1166 67.684 31.954 67.632 33.8606 67.632C34.5193 67.632 35.1606 67.632 35.7846 67.632C36.4086 67.632 37.05 67.6493 37.7086 67.684L37.8126 67.58C37.6046 67.372 37.5006 67.1293 37.5006 66.852C37.5006 66.4013 37.726 65.968 38.1766 65.552C38.662 65.1013 39.182 64.7027 39.7366 64.356C40.2913 63.9747 40.7246 63.6627 41.0366 63.42C41.3486 63.42 41.782 63.5067 42.3366 63.68C42.8913 63.8187 43.3766 64.0267 43.7926 64.304C44.2433 64.5813 44.4686 64.928 44.4686 65.344C44.4686 65.5173 44.434 65.708 44.3646 65.916C44.2606 66.1933 44.0353 66.5227 43.6886 66.904C43.342 67.2853 42.926 67.684 42.4406 68.1C43.8966 68.2733 45.2313 68.516 46.4446 68.828C47.6926 69.14 48.7326 69.5387 49.5646 70.024C51.298 71.0293 52.598 72.26 53.4646 73.716C54.366 75.1373 54.8166 76.6627 54.8166 78.292C54.8166 79.9213 54.3833 81.5333 53.5166 83.128C52.5806 84.8613 51.2806 86.56 49.6166 88.224C47.9526 89.8533 46.046 91.3613 43.8966 92.748C41.7473 94.1347 39.4593 95.3307 37.0326 96.336C34.606 97.3413 32.162 98.0693 29.7006 98.52C28.73 98.6933 27.69 98.832 26.5806 98.936C25.506 99.0747 24.4486 99.144 23.4086 99.144ZM22.4206 97.896C23.634 97.896 24.882 97.74 26.1646 97.428C27.4473 97.116 28.574 96.7693 29.5446 96.388C31.6246 95.556 33.7566 94.5333 35.9406 93.32C38.1246 92.1067 40.2046 90.824 42.1806 89.472C44.1913 88.12 45.942 86.8027 47.4326 85.52C48.958 84.2027 50.0846 83.0413 50.8126 82.036C51.5406 81.0307 52.0953 80.0253 52.4766 79.02C52.8926 78.0147 53.1006 77.0787 53.1006 76.212C53.1006 74.444 52.1646 72.9533 50.2926 71.74C48.4553 70.492 45.318 69.7467 40.8806 69.504C40.326 69.9547 39.858 70.3707 39.4766 70.752C38.61 71.6187 37.57 72.7107 36.3566 74.028C35.1433 75.3107 33.878 76.7147 32.5606 78.24C31.278 79.7653 30.0646 81.3427 28.9206 82.972C29.718 82.7293 30.55 82.5213 31.4166 82.348C32.318 82.14 33.2366 81.9667 34.1726 81.828C34.3806 81.7587 34.5366 81.724 34.6406 81.724C34.918 81.724 35.0566 81.828 35.0566 82.036C35.0566 82.2787 34.918 82.452 34.6406 82.556C33.4273 82.7293 32.266 82.9547 31.1566 83.232C30.082 83.4747 29.0593 83.7867 28.0886 84.168C27.0833 85.6933 26.2686 87.2013 25.6446 88.692C25.0206 90.148 24.7086 91.5 24.7086 92.748C24.7086 93.4067 24.8126 93.9787 25.0206 94.464C25.2286 94.9147 25.714 95.14 26.4766 95.14V95.556C26.2686 95.66 26.0433 95.712 25.8006 95.712C25.2113 95.712 24.6913 95.4867 24.2406 95.036C23.79 94.5507 23.4433 93.996 23.2006 93.372C22.958 92.7133 22.8366 92.1413 22.8366 91.656C22.8366 90.8587 22.9753 89.9573 23.2526 88.952C23.5646 87.9467 23.998 86.8893 24.5526 85.78C22.4033 86.9587 20.722 88.276 19.5086 89.732C18.33 91.1533 17.6713 92.4707 17.5326 93.684C17.5326 93.788 17.5153 93.892 17.4806 93.996C17.4806 94.1 17.4806 94.204 17.4806 94.308C17.4806 95.66 17.966 96.596 18.9366 97.116C19.942 97.636 21.1033 97.896 22.4206 97.896ZM62.6089 83.492C61.9502 83.3533 61.3436 83.0067 60.7889 82.452C60.2689 81.8973 60.0782 81.2733 60.2169 80.58C60.2862 80.1987 60.4249 79.956 60.6329 79.852C60.8409 79.748 61.2222 79.6613 61.7769 79.592C62.4009 79.5227 62.8169 79.4707 63.0249 79.436C63.2676 79.4013 63.4929 79.3667 63.7009 79.332C63.9436 79.2627 64.3769 79.176 65.0009 79.072C65.1396 79.0373 65.3129 78.9507 65.5209 78.812C65.7289 78.6733 65.7982 78.76 65.7289 79.072C65.7289 79.2107 65.6076 79.384 65.3649 79.592C65.1569 79.7653 64.9662 79.8867 64.7929 79.956C64.4116 80.1293 63.9782 80.3373 63.4929 80.58C63.0422 80.8227 62.6956 81.152 62.4529 81.568C62.3489 81.776 62.2969 81.9667 62.2969 82.14C62.2969 82.6253 62.4702 82.9027 62.8169 82.972C62.8862 82.972 62.9209 83.024 62.9209 83.128C62.9209 83.1973 62.8862 83.284 62.8169 83.388C62.7476 83.492 62.6782 83.5267 62.6089 83.492ZM56.1609 98.728C54.8782 98.728 53.9769 98.3293 53.4569 97.532C52.9716 96.7347 52.7289 95.7987 52.7289 94.724C52.7289 93.0947 53.0236 91.7427 53.6129 90.668C53.2662 90.4947 53.1796 90.2867 53.3529 90.044C53.7689 89.4893 54.2542 88.8307 54.8089 88.068C55.3636 87.3053 55.9009 86.612 56.4209 85.988C56.9756 85.364 57.4262 85 57.7729 84.896C57.8769 84.8613 58.0156 84.844 58.1889 84.844C58.7436 84.844 59.2462 85.0347 59.6969 85.416C60.1822 85.7973 60.4942 86.04 60.6329 86.144C59.8009 86.976 58.9689 87.9293 58.1369 89.004C57.3396 90.0787 56.6636 91.2227 56.1089 92.436C55.5542 93.6493 55.2769 94.88 55.2769 96.128C55.2769 96.5787 55.3636 96.908 55.5369 97.116C55.7102 97.2893 55.9182 97.376 56.1609 97.376C56.6809 97.376 57.2182 97.1333 57.7729 96.648C58.3969 96.0933 59.1769 95.2787 60.1129 94.204C61.0836 93.0947 61.9676 92.0027 62.7649 90.928C63.2502 90.2347 63.5796 89.888 63.7529 89.888C63.9262 89.888 63.9262 90.1133 63.7529 90.564C63.6142 91.0147 63.3542 91.5347 62.9729 92.124C62.4876 92.7827 61.8982 93.632 61.2049 94.672C60.5116 95.6773 59.7662 96.5787 58.9689 97.376C58.5182 97.8267 58.0329 98.156 57.5129 98.364C57.0276 98.6067 56.5769 98.728 56.1609 98.728ZM63.5624 98.572C63.0077 98.572 62.5397 98.3813 62.1584 98C61.8117 97.6533 61.5517 97.2373 61.3784 96.752C61.205 96.2667 61.1184 95.8507 61.1184 95.504C61.1184 94.3253 61.4824 93.0773 62.2104 91.76C62.9384 90.4427 63.8744 89.212 65.0184 88.068C66.197 86.924 67.4277 85.988 68.7104 85.26C69.993 84.532 71.189 84.168 72.2984 84.168C73.0957 84.168 73.893 84.7053 74.6904 85.78C74.7597 85.884 74.829 86.0227 74.8984 86.196C75.0024 86.3693 75.0544 86.5427 75.0544 86.716C75.0544 87.028 74.933 87.236 74.6904 87.34C74.6557 87.3747 74.569 87.2707 74.4304 87.028C74.3264 86.7507 73.9624 86.612 73.3384 86.612C72.749 86.612 71.969 86.8893 70.9984 87.444C70.0277 87.9987 69.005 88.7267 67.9304 89.628C66.8904 90.5293 65.937 91.5 65.0704 92.54C64.2384 93.58 63.6317 94.5853 63.2504 95.556C63.181 95.7987 63.1117 96.0413 63.0424 96.284C62.973 96.5267 62.9384 96.7347 62.9384 96.908C62.9384 97.22 63.0424 97.376 63.2504 97.376C63.4584 97.376 63.7357 97.2547 64.0824 97.012C64.8104 96.492 65.573 95.8507 66.3704 95.088C67.1677 94.2907 67.9304 93.476 68.6584 92.644C69.421 91.7773 70.0624 90.9627 70.5824 90.2C71.1024 89.4373 71.4317 88.8133 71.5704 88.328C71.6397 88.0507 72.0384 87.912 72.7664 87.912C73.3557 87.912 73.8584 88.0507 74.2744 88.328C74.6904 88.5707 74.7944 88.848 74.5864 89.16C73.9624 90.096 73.3557 91.084 72.7664 92.124C72.177 93.1293 71.7437 94.152 71.4664 95.192C71.4317 95.3307 71.397 95.452 71.3624 95.556C71.3624 95.66 71.3624 95.7467 71.3624 95.816C71.3624 96.1627 71.501 96.336 71.7784 96.336C72.0904 96.336 72.437 96.18 72.8184 95.868C73.5464 95.1747 74.309 94.2907 75.1064 93.216C75.9384 92.1067 76.7877 91.0147 77.6544 89.94C77.9664 89.5933 78.1744 89.42 78.2784 89.42C78.3824 89.42 78.4344 89.5067 78.4344 89.68C78.4344 89.8187 78.3997 89.9573 78.3304 90.096C78.1917 90.4427 78.001 90.8067 77.7584 91.188C77.5157 91.5347 77.2904 91.8467 77.0824 92.124C76.909 92.3667 76.6144 92.8 76.1984 93.424C75.7824 94.048 75.297 94.7067 74.7424 95.4C74.1877 96.0933 73.6157 96.7 73.0264 97.22C72.437 97.7053 71.8824 97.948 71.3624 97.948C70.6344 97.948 70.045 97.7227 69.5944 97.272C69.1784 96.7867 68.9704 96.3533 68.9704 95.972C68.9704 95.4867 68.9877 95.1573 69.0224 94.984C69.0917 94.6373 69.1957 94.2213 69.3344 93.736C69.5077 93.2507 69.6637 92.7827 69.8024 92.332C69.525 92.7133 69.109 93.2507 68.5544 93.944C67.9997 94.6373 67.393 95.348 66.7344 96.076C66.1104 96.7693 65.5037 97.3587 64.9144 97.844C64.325 98.3293 63.8744 98.572 63.5624 98.572ZM91.774 102.056C90.734 102.056 90.0407 101.744 89.694 101.12C89.382 100.496 89.226 99.9067 89.226 99.352C89.226 98.1733 89.486 96.9773 90.006 95.764C90.5607 94.516 91.15 93.2853 91.774 92.072C92.0513 91.552 92.3633 90.9627 92.71 90.304C93.0567 89.6453 93.3513 89.0213 93.594 88.432C93.8367 87.8427 93.958 87.4093 93.958 87.132C93.958 86.82 93.8193 86.664 93.542 86.664C93.126 86.664 92.6233 86.9587 92.034 87.548C91.4447 88.1373 90.8033 88.9 90.11 89.836C89.4167 90.772 88.7407 91.7253 88.082 92.696C87.458 93.6667 86.9033 94.5507 86.418 95.348C85.9673 96.1453 85.6553 96.7173 85.482 97.064C85.17 97.7573 84.754 98.104 84.234 98.104C83.6793 98.104 83.0553 97.7053 82.362 96.908C82.674 96.18 83.0553 95.3133 83.506 94.308C83.9567 93.268 84.39 92.228 84.806 91.188C85.222 90.1133 85.5167 89.1773 85.69 88.38C85.7247 88.2067 85.742 88.0507 85.742 87.912C85.7767 87.7733 85.794 87.6347 85.794 87.496C85.794 86.9413 85.6553 86.664 85.378 86.664C85.1007 86.664 84.7713 86.8547 84.39 87.236C83.9047 87.652 83.298 88.3107 82.57 89.212C81.8767 90.1133 81.166 91.1013 80.438 92.176C79.7447 93.216 79.138 94.2213 78.618 95.192C78.098 96.1627 77.7687 96.96 77.63 97.584C77.5953 97.896 77.3353 98.052 76.85 98.052C76.3993 98.052 76.0007 97.8787 75.654 97.532C75.3073 97.1853 75.134 96.7173 75.134 96.128C75.134 95.9893 75.2727 95.5907 75.55 94.932C75.8273 94.2733 76.1567 93.4933 76.538 92.592C76.954 91.6907 77.3527 90.8413 77.734 90.044C78.1153 89.212 78.41 88.5707 78.618 88.12C78.3753 87.912 78.254 87.7387 78.254 87.6C78.2887 87.4613 78.3233 87.3227 78.358 87.184L79.866 84.428C79.97 84.3587 80.2993 84.2373 80.854 84.064C81.4087 83.856 81.9113 83.752 82.362 83.752C82.9513 83.752 83.246 83.96 83.246 84.376C83.246 84.6187 83.1247 84.9653 82.882 85.416C82.7433 85.624 82.466 86.092 82.05 86.82C81.634 87.548 81.1833 88.3627 80.698 89.264C80.2127 90.1653 79.7793 90.98 79.398 91.708C79.0513 92.436 78.878 92.8867 78.878 93.06C78.878 93.1987 79.0167 93.06 79.294 92.644C79.606 92.228 79.97 91.708 80.386 91.084C80.8367 90.4253 81.2527 89.8013 81.634 89.212C82.05 88.588 82.362 88.1547 82.57 87.912C83.09 87.288 83.5407 86.716 83.922 86.196C84.338 85.676 84.8753 85.416 85.534 85.416C86.5393 85.416 87.2847 85.6587 87.77 86.144C88.2553 86.6293 88.498 87.184 88.498 87.808C88.498 88.3973 88.342 89.108 88.03 89.94C87.718 90.772 87.4233 91.5 87.146 92.124C87.3887 91.916 87.8047 91.4133 88.394 90.616C88.9833 89.784 89.642 88.9 90.37 87.964C91.098 87.028 91.7913 86.2133 92.45 85.52C93.1433 84.8267 93.698 84.48 94.114 84.48C94.6687 84.48 95.206 84.6187 95.726 84.896C96.246 85.1733 96.662 85.52 96.974 85.936C97.3207 86.352 97.4593 86.7853 97.39 87.236C97.1473 88.4147 96.7313 89.4373 96.142 90.304C95.5527 91.136 94.8593 92.124 94.062 93.268C93.3687 94.3427 92.6753 95.504 91.982 96.752C91.2887 98 90.942 99.1267 90.942 100.132C90.942 100.409 90.9767 100.652 91.046 100.86C91.15 101.103 91.2887 101.224 91.462 101.224C91.6353 101.224 91.8953 101.085 92.242 100.808C92.5193 100.6 92.7793 100.357 93.022 100.08C93.2993 99.8373 93.5593 99.6467 93.802 99.508C93.9753 99.3347 94.0967 99.248 94.166 99.248C94.374 99.248 94.3913 99.404 94.218 99.716C93.9407 100.34 93.6113 100.877 93.23 101.328C92.8487 101.813 92.3633 102.056 91.774 102.056ZM99.3124 98.572C98.7577 98.572 98.2897 98.3813 97.9084 98C97.5617 97.6533 97.3017 97.2373 97.1284 96.752C96.955 96.2667 96.8684 95.8507 96.8684 95.504C96.8684 94.3253 97.2324 93.0773 97.9604 91.76C98.6884 90.4427 99.6244 89.212 100.768 88.068C101.947 86.924 103.178 85.988 104.46 85.26C105.743 84.532 106.939 84.168 108.048 84.168C108.846 84.168 109.643 84.7053 110.44 85.78C110.51 85.884 110.579 86.0227 110.648 86.196C110.752 86.3693 110.804 86.5427 110.804 86.716C110.804 87.028 110.683 87.236 110.44 87.34C110.406 87.3747 110.319 87.2707 110.18 87.028C110.076 86.7507 109.712 86.612 109.088 86.612C108.499 86.612 107.719 86.8893 106.748 87.444C105.778 87.9987 104.755 88.7267 103.68 89.628C102.64 90.5293 101.687 91.5 100.82 92.54C99.9884 93.58 99.3817 94.5853 99.0004 95.556C98.931 95.7987 98.8617 96.0413 98.7924 96.284C98.723 96.5267 98.6884 96.7347 98.6884 96.908C98.6884 97.22 98.7924 97.376 99.0004 97.376C99.2084 97.376 99.4857 97.2547 99.8324 97.012C100.56 96.492 101.323 95.8507 102.12 95.088C102.918 94.2907 103.68 93.476 104.408 92.644C105.171 91.7773 105.812 90.9627 106.332 90.2C106.852 89.4373 107.182 88.8133 107.32 88.328C107.39 88.0507 107.788 87.912 108.516 87.912C109.106 87.912 109.608 88.0507 110.024 88.328C110.44 88.5707 110.544 88.848 110.336 89.16C109.712 90.096 109.106 91.084 108.516 92.124C107.927 93.1293 107.494 94.152 107.216 95.192C107.182 95.3307 107.147 95.452 107.112 95.556C107.112 95.66 107.112 95.7467 107.112 95.816C107.112 96.1627 107.251 96.336 107.528 96.336C107.84 96.336 108.187 96.18 108.568 95.868C109.296 95.1747 110.059 94.2907 110.856 93.216C111.688 92.1067 112.538 91.0147 113.404 89.94C113.716 89.5933 113.924 89.42 114.028 89.42C114.132 89.42 114.184 89.5067 114.184 89.68C114.184 89.8187 114.15 89.9573 114.08 90.096C113.942 90.4427 113.751 90.8067 113.508 91.188C113.266 91.5347 113.04 91.8467 112.832 92.124C112.659 92.3667 112.364 92.8 111.948 93.424C111.532 94.048 111.047 94.7067 110.492 95.4C109.938 96.0933 109.366 96.7 108.776 97.22C108.187 97.7053 107.632 97.948 107.112 97.948C106.384 97.948 105.795 97.7227 105.344 97.272C104.928 96.7867 104.72 96.3533 104.72 95.972C104.72 95.4867 104.738 95.1573 104.772 94.984C104.842 94.6373 104.946 94.2213 105.084 93.736C105.258 93.2507 105.414 92.7827 105.552 92.332C105.275 92.7133 104.859 93.2507 104.304 93.944C103.75 94.6373 103.143 95.348 102.484 96.076C101.86 96.7693 101.254 97.3587 100.664 97.844C100.075 98.3293 99.6244 98.572 99.3124 98.572ZM120.504 98.624C119.741 98.624 119.1 98.3987 118.58 97.948C118.095 97.4973 117.852 96.7867 117.852 95.816C117.852 94.984 117.991 94.152 118.268 93.32C118.545 92.4533 118.84 91.6733 119.152 90.98C119.499 90.2867 119.776 89.7667 119.984 89.42C120.747 87.9987 120.989 87.288 120.712 87.288C120.469 87.288 119.915 87.7387 119.048 88.64C118.216 89.5067 117.193 90.7373 115.98 92.332C114.905 93.7187 114.195 94.8107 113.848 95.608C113.501 96.3707 113.276 96.9947 113.172 97.48C113.137 97.792 112.877 97.948 112.392 97.948C112.011 97.948 111.629 97.792 111.248 97.48C110.867 97.1333 110.676 96.6653 110.676 96.076C110.676 95.9027 110.832 95.452 111.144 94.724C111.456 93.996 111.82 93.1467 112.236 92.176C112.687 91.2053 113.12 90.2867 113.536 89.42C113.952 88.5533 114.264 87.8947 114.472 87.444C114.056 87.2013 113.969 86.8893 114.212 86.508L115.72 83.752C115.824 83.6827 116.136 83.5613 116.656 83.388C117.211 83.18 117.713 83.076 118.164 83.076C118.788 83.076 119.1 83.284 119.1 83.7C119.1 83.908 118.961 84.2547 118.684 84.74C118.58 84.9133 118.337 85.3467 117.956 86.04C117.575 86.6987 117.141 87.4787 116.656 88.38C116.205 89.2467 115.772 90.0787 115.356 90.876C114.975 91.6387 114.697 92.2107 114.524 92.592C114.524 92.6267 114.507 92.6613 114.472 92.696C114.472 92.696 114.472 92.7133 114.472 92.748C114.472 92.8867 114.593 92.7653 114.836 92.384C115.113 92.0027 115.321 91.7253 115.46 91.552C116.5 90.1307 117.575 88.8133 118.684 87.6C119.828 86.3867 121.024 85.1907 122.272 84.012C122.515 84.1507 122.861 84.2373 123.312 84.272C123.797 84.3067 124.248 84.3933 124.664 84.532C125.08 84.636 125.288 84.9133 125.288 85.364C125.288 86.0573 124.993 86.8373 124.404 87.704C123.849 88.5707 123.225 89.4547 122.532 90.356C121.873 91.2227 121.249 92.2627 120.66 93.476C120.071 94.6893 119.776 95.712 119.776 96.544C119.776 97.2373 120.001 97.584 120.452 97.584C120.66 97.584 120.937 97.48 121.284 97.272C121.561 97.0987 122.099 96.6653 122.896 95.972C123.693 95.244 124.543 94.2387 125.444 92.956C125.721 92.54 125.999 92.332 126.276 92.332C126.415 92.332 126.501 92.4013 126.536 92.54C126.571 92.644 126.553 92.7827 126.484 92.956C124.057 96.7347 122.064 98.624 120.504 98.624ZM129.207 98.728C128.444 98.728 127.768 98.4333 127.179 97.844C126.59 97.2547 126.295 96.3533 126.295 95.14C126.295 94.308 126.486 93.3027 126.867 92.124C127.283 90.9107 127.786 89.68 128.375 88.432C128.999 87.1493 129.623 85.9533 130.247 84.844C130.906 83.7 131.46 82.764 131.911 82.036H129.727C129.207 82.036 128.947 81.8627 128.947 81.516C128.947 81.3427 129.016 81.1867 129.155 81.048C129.294 80.9093 129.45 80.84 129.623 80.84H132.691C132.83 80.632 133.038 80.2853 133.315 79.8C133.627 79.28 133.939 78.7253 134.251 78.136C134.598 77.512 134.875 76.9747 135.083 76.524C135.326 76.0733 135.447 75.796 135.447 75.692C135.447 75.484 135.36 75.3453 135.187 75.276C135.048 75.2067 134.944 75.1373 134.875 75.068C134.771 74.8947 134.719 74.7733 134.719 74.704C134.719 74.5307 134.806 74.4093 134.979 74.34C135.152 74.236 135.308 74.184 135.447 74.184C135.759 74.184 136.21 74.34 136.799 74.652C137.423 74.9293 138.012 75.224 138.567 75.536C139.156 75.8133 139.52 75.9693 139.659 76.004C139.52 76.2467 139.226 76.6973 138.775 77.356C138.324 77.98 137.874 78.6387 137.423 79.332C136.972 79.9907 136.643 80.4933 136.435 80.84L144.651 80.788C145.275 80.788 145.587 80.9093 145.587 81.152C145.587 81.3253 145.431 81.516 145.119 81.724C144.807 81.8973 144.495 82.0013 144.183 82.036C143.455 82.0707 142.519 82.1053 141.375 82.14C140.266 82.14 139.208 82.1573 138.203 82.192C137.232 82.2267 136.574 82.296 136.227 82.4C135.776 82.5387 135.256 82.972 134.667 83.7C134.112 84.3933 133.523 85.2427 132.899 86.248C132.31 87.2533 131.738 88.2933 131.183 89.368C130.628 90.4427 130.16 91.4307 129.779 92.332C129.398 93.1987 129.155 93.8573 129.051 94.308C128.982 94.62 128.93 94.9147 128.895 95.192C128.86 95.4347 128.843 95.66 128.843 95.868C128.843 96.3533 128.93 96.7 129.103 96.908C129.311 97.0813 129.536 97.168 129.779 97.168C130.23 97.168 130.628 96.9947 130.975 96.648C131.599 96.0933 132.379 95.2787 133.315 94.204C134.286 93.0947 135.17 92.0027 135.967 90.928C136.452 90.2347 136.782 89.888 136.955 89.888C137.128 89.888 137.128 90.1133 136.955 90.564C136.782 91.0147 136.504 91.5347 136.123 92.124C135.672 92.7827 135.1 93.632 134.407 94.672C133.714 95.6773 132.968 96.5787 132.171 97.376C131.27 98.2773 130.282 98.728 129.207 98.728Z" fill="black"/>
</svg>
