<svg width="146" height="99" viewBox="0 0 146 99" fill="none" xmlns="http://www.w3.org/2000/svg">
<path fill-rule="evenodd" clip-rule="evenodd" d="M102.979 2L117.512 21.378L78.756 69.823L40 21.378L54.5771 2H102.979Z" stroke="#141414" stroke-width="3.41" stroke-linecap="round" stroke-linejoin="round"/>
<path d="M40 21.3779H117.512" stroke="#141414" stroke-width="3.41" stroke-linecap="round" stroke-linejoin="round"/>
<path d="M64.2227 21.3779L78.7562 69.8229" stroke="#141414" stroke-width="3.41" stroke-linecap="round" stroke-linejoin="round"/>
<path d="M93.2894 21.3779L78.7559 69.8229" stroke="#141414" stroke-width="3.41" stroke-linecap="round" stroke-linejoin="round"/>
<path d="M54.5762 2L64.2216 21.378L78.7551 2L93.2886 21.378L102.978 2" stroke="#141414" stroke-width="3.41" stroke-linecap="round" stroke-linejoin="round"/>
<path d="M23.4086 95.144C22.126 95.144 20.9473 95.0227 19.8726 94.78C18.798 94.5373 17.966 94.104 17.3766 93.48C17.238 93.5147 16.978 93.48 16.5966 93.376C16.25 93.2373 15.938 93.012 15.6606 92.7C15.0366 91.972 14.7246 90.9493 14.7246 89.632C14.7246 88.8347 14.8633 88.0547 15.1406 87.292C15.418 86.4947 15.886 85.7667 16.5446 85.108C17.446 84.2067 18.642 83.3227 20.1326 82.456C21.6233 81.5547 23.3913 80.74 25.4366 80.012C26.4073 78.244 27.4993 76.4587 28.7126 74.656C29.9606 72.8533 31.226 71.1547 32.5086 69.56C33.7913 67.9653 34.9526 66.596 35.9926 65.452C34.1206 65.4867 32.3006 65.5907 30.5326 65.764C28.7993 65.9373 27.274 66.1107 25.9566 66.284C24.466 66.4573 22.9406 66.752 21.3806 67.168C19.8206 67.584 18.3646 68.0867 17.0126 68.676C15.6953 69.2307 14.6206 69.8373 13.7886 70.496C12.9913 71.12 12.5926 71.744 12.5926 72.368C12.5926 72.5413 12.6966 72.6973 12.9046 72.836C13.1126 72.9747 13.338 73.044 13.5806 73.044C13.6846 73.148 13.7366 73.2347 13.7366 73.304C13.7366 73.4773 13.546 73.5293 13.1646 73.46C12.7833 73.3907 12.298 73.1653 11.7086 72.784C11.154 72.368 10.6513 71.8827 10.2006 71.328C9.78463 70.7733 9.57663 70.288 9.57663 69.872C9.57663 69.1787 9.97529 68.5373 10.7726 67.948C11.6046 67.324 12.6966 66.7693 14.0486 66.284C15.4353 65.764 16.978 65.3307 18.6766 64.984C20.3753 64.6027 22.1086 64.308 23.8766 64.1C25.1246 63.9613 26.6153 63.8573 28.3486 63.788C30.1166 63.684 31.954 63.632 33.8606 63.632C34.5193 63.632 35.1606 63.632 35.7846 63.632C36.4086 63.632 37.05 63.6493 37.7086 63.684L37.8126 63.58C37.6046 63.372 37.5006 63.1293 37.5006 62.852C37.5006 62.4013 37.726 61.968 38.1766 61.552C38.662 61.1013 39.182 60.7027 39.7366 60.356C40.2913 59.9747 40.7246 59.6627 41.0366 59.42C41.3486 59.42 41.782 59.5067 42.3366 59.68C42.8913 59.8187 43.3766 60.0267 43.7926 60.304C44.2433 60.5813 44.4686 60.928 44.4686 61.344C44.4686 61.5173 44.434 61.708 44.3646 61.916C44.2606 62.1933 44.0353 62.5227 43.6886 62.904C43.342 63.2853 42.926 63.684 42.4406 64.1C43.8966 64.2733 45.2313 64.516 46.4446 64.828C47.6926 65.14 48.7326 65.5387 49.5646 66.024C51.298 67.0293 52.598 68.26 53.4646 69.716C54.366 71.1373 54.8166 72.6627 54.8166 74.292C54.8166 75.9213 54.3833 77.5333 53.5166 79.128C52.5806 80.8613 51.2806 82.56 49.6166 84.224C47.9526 85.8533 46.046 87.3613 43.8966 88.748C41.7473 90.1347 39.4593 91.3307 37.0326 92.336C34.606 93.3413 32.162 94.0693 29.7006 94.52C28.73 94.6933 27.69 94.832 26.5806 94.936C25.506 95.0747 24.4486 95.144 23.4086 95.144ZM22.4206 93.896C23.634 93.896 24.882 93.74 26.1646 93.428C27.4473 93.116 28.574 92.7693 29.5446 92.388C31.6246 91.556 33.7566 90.5333 35.9406 89.32C38.1246 88.1067 40.2046 86.824 42.1806 85.472C44.1913 84.12 45.942 82.8027 47.4326 81.52C48.958 80.2027 50.0846 79.0413 50.8126 78.036C51.5406 77.0307 52.0953 76.0253 52.4766 75.02C52.8926 74.0147 53.1006 73.0787 53.1006 72.212C53.1006 70.444 52.1646 68.9533 50.2926 67.74C48.4553 66.492 45.318 65.7467 40.8806 65.504C40.326 65.9547 39.858 66.3707 39.4766 66.752C38.61 67.6187 37.57 68.7107 36.3566 70.028C35.1433 71.3107 33.878 72.7147 32.5606 74.24C31.278 75.7653 30.0646 77.3427 28.9206 78.972C29.718 78.7293 30.55 78.5213 31.4166 78.348C32.318 78.14 33.2366 77.9667 34.1726 77.828C34.3806 77.7587 34.5366 77.724 34.6406 77.724C34.918 77.724 35.0566 77.828 35.0566 78.036C35.0566 78.2787 34.918 78.452 34.6406 78.556C33.4273 78.7293 32.266 78.9547 31.1566 79.232C30.082 79.4747 29.0593 79.7867 28.0886 80.168C27.0833 81.6933 26.2686 83.2013 25.6446 84.692C25.0206 86.148 24.7086 87.5 24.7086 88.748C24.7086 89.4067 24.8126 89.9787 25.0206 90.464C25.2286 90.9147 25.714 91.14 26.4766 91.14V91.556C26.2686 91.66 26.0433 91.712 25.8006 91.712C25.2113 91.712 24.6913 91.4867 24.2406 91.036C23.79 90.5507 23.4433 89.996 23.2006 89.372C22.958 88.7133 22.8366 88.1413 22.8366 87.656C22.8366 86.8587 22.9753 85.9573 23.2526 84.952C23.5646 83.9467 23.998 82.8893 24.5526 81.78C22.4033 82.9587 20.722 84.276 19.5086 85.732C18.33 87.1533 17.6713 88.4707 17.5326 89.684C17.5326 89.788 17.5153 89.892 17.4806 89.996C17.4806 90.1 17.4806 90.204 17.4806 90.308C17.4806 91.66 17.966 92.596 18.9366 93.116C19.942 93.636 21.1033 93.896 22.4206 93.896ZM62.6089 79.492C61.9502 79.3533 61.3436 79.0067 60.7889 78.452C60.2689 77.8973 60.0782 77.2733 60.2169 76.58C60.2862 76.1987 60.4249 75.956 60.6329 75.852C60.8409 75.748 61.2222 75.6613 61.7769 75.592C62.4009 75.5227 62.8169 75.4707 63.0249 75.436C63.2676 75.4013 63.4929 75.3667 63.7009 75.332C63.9436 75.2627 64.3769 75.176 65.0009 75.072C65.1396 75.0373 65.3129 74.9507 65.5209 74.812C65.7289 74.6733 65.7982 74.76 65.7289 75.072C65.7289 75.2107 65.6076 75.384 65.3649 75.592C65.1569 75.7653 64.9662 75.8867 64.7929 75.956C64.4116 76.1293 63.9782 76.3373 63.4929 76.58C63.0422 76.8227 62.6956 77.152 62.4529 77.568C62.3489 77.776 62.2969 77.9667 62.2969 78.14C62.2969 78.6253 62.4702 78.9027 62.8169 78.972C62.8862 78.972 62.9209 79.024 62.9209 79.128C62.9209 79.1973 62.8862 79.284 62.8169 79.388C62.7476 79.492 62.6782 79.5267 62.6089 79.492ZM56.1609 94.728C54.8782 94.728 53.9769 94.3293 53.4569 93.532C52.9716 92.7347 52.7289 91.7987 52.7289 90.724C52.7289 89.0947 53.0236 87.7427 53.6129 86.668C53.2662 86.4947 53.1796 86.2867 53.3529 86.044C53.7689 85.4893 54.2542 84.8307 54.8089 84.068C55.3636 83.3053 55.9009 82.612 56.4209 81.988C56.9756 81.364 57.4262 81 57.7729 80.896C57.8769 80.8613 58.0156 80.844 58.1889 80.844C58.7436 80.844 59.2462 81.0347 59.6969 81.416C60.1822 81.7973 60.4942 82.04 60.6329 82.144C59.8009 82.976 58.9689 83.9293 58.1369 85.004C57.3396 86.0787 56.6636 87.2227 56.1089 88.436C55.5542 89.6493 55.2769 90.88 55.2769 92.128C55.2769 92.5787 55.3636 92.908 55.5369 93.116C55.7102 93.2893 55.9182 93.376 56.1609 93.376C56.6809 93.376 57.2182 93.1333 57.7729 92.648C58.3969 92.0933 59.1769 91.2787 60.1129 90.204C61.0836 89.0947 61.9676 88.0027 62.7649 86.928C63.2502 86.2347 63.5796 85.888 63.7529 85.888C63.9262 85.888 63.9262 86.1133 63.7529 86.564C63.6142 87.0147 63.3542 87.5347 62.9729 88.124C62.4876 88.7827 61.8982 89.632 61.2049 90.672C60.5116 91.6773 59.7662 92.5787 58.9689 93.376C58.5182 93.8267 58.0329 94.156 57.5129 94.364C57.0276 94.6067 56.5769 94.728 56.1609 94.728ZM63.5624 94.572C63.0077 94.572 62.5397 94.3813 62.1584 94C61.8117 93.6533 61.5517 93.2373 61.3784 92.752C61.205 92.2667 61.1184 91.8507 61.1184 91.504C61.1184 90.3253 61.4824 89.0773 62.2104 87.76C62.9384 86.4427 63.8744 85.212 65.0184 84.068C66.197 82.924 67.4277 81.988 68.7104 81.26C69.993 80.532 71.189 80.168 72.2984 80.168C73.0957 80.168 73.893 80.7053 74.6904 81.78C74.7597 81.884 74.829 82.0227 74.8984 82.196C75.0024 82.3693 75.0544 82.5427 75.0544 82.716C75.0544 83.028 74.933 83.236 74.6904 83.34C74.6557 83.3747 74.569 83.2707 74.4304 83.028C74.3264 82.7507 73.9624 82.612 73.3384 82.612C72.749 82.612 71.969 82.8893 70.9984 83.444C70.0277 83.9987 69.005 84.7267 67.9304 85.628C66.8904 86.5293 65.937 87.5 65.0704 88.54C64.2384 89.58 63.6317 90.5853 63.2504 91.556C63.181 91.7987 63.1117 92.0413 63.0424 92.284C62.973 92.5267 62.9384 92.7347 62.9384 92.908C62.9384 93.22 63.0424 93.376 63.2504 93.376C63.4584 93.376 63.7357 93.2547 64.0824 93.012C64.8104 92.492 65.573 91.8507 66.3704 91.088C67.1677 90.2907 67.9304 89.476 68.6584 88.644C69.421 87.7773 70.0624 86.9627 70.5824 86.2C71.1024 85.4373 71.4317 84.8133 71.5704 84.328C71.6397 84.0507 72.0384 83.912 72.7664 83.912C73.3557 83.912 73.8584 84.0507 74.2744 84.328C74.6904 84.5707 74.7944 84.848 74.5864 85.16C73.9624 86.096 73.3557 87.084 72.7664 88.124C72.177 89.1293 71.7437 90.152 71.4664 91.192C71.4317 91.3307 71.397 91.452 71.3624 91.556C71.3624 91.66 71.3624 91.7467 71.3624 91.816C71.3624 92.1627 71.501 92.336 71.7784 92.336C72.0904 92.336 72.437 92.18 72.8184 91.868C73.5464 91.1747 74.309 90.2907 75.1064 89.216C75.9384 88.1067 76.7877 87.0147 77.6544 85.94C77.9664 85.5933 78.1744 85.42 78.2784 85.42C78.3824 85.42 78.4344 85.5067 78.4344 85.68C78.4344 85.8187 78.3997 85.9573 78.3304 86.096C78.1917 86.4427 78.001 86.8067 77.7584 87.188C77.5157 87.5347 77.2904 87.8467 77.0824 88.124C76.909 88.3667 76.6144 88.8 76.1984 89.424C75.7824 90.048 75.297 90.7067 74.7424 91.4C74.1877 92.0933 73.6157 92.7 73.0264 93.22C72.437 93.7053 71.8824 93.948 71.3624 93.948C70.6344 93.948 70.045 93.7227 69.5944 93.272C69.1784 92.7867 68.9704 92.3533 68.9704 91.972C68.9704 91.4867 68.9877 91.1573 69.0224 90.984C69.0917 90.6373 69.1957 90.2213 69.3344 89.736C69.5077 89.2507 69.6637 88.7827 69.8024 88.332C69.525 88.7133 69.109 89.2507 68.5544 89.944C67.9997 90.6373 67.393 91.348 66.7344 92.076C66.1104 92.7693 65.5037 93.3587 64.9144 93.844C64.325 94.3293 63.8744 94.572 63.5624 94.572ZM91.774 98.056C90.734 98.056 90.0407 97.744 89.694 97.12C89.382 96.496 89.226 95.9067 89.226 95.352C89.226 94.1733 89.486 92.9773 90.006 91.764C90.5607 90.516 91.15 89.2853 91.774 88.072C92.0513 87.552 92.3633 86.9627 92.71 86.304C93.0567 85.6453 93.3513 85.0213 93.594 84.432C93.8367 83.8427 93.958 83.4093 93.958 83.132C93.958 82.82 93.8193 82.664 93.542 82.664C93.126 82.664 92.6233 82.9587 92.034 83.548C91.4447 84.1373 90.8033 84.9 90.11 85.836C89.4167 86.772 88.7407 87.7253 88.082 88.696C87.458 89.6667 86.9033 90.5507 86.418 91.348C85.9673 92.1453 85.6553 92.7173 85.482 93.064C85.17 93.7573 84.754 94.104 84.234 94.104C83.6793 94.104 83.0553 93.7053 82.362 92.908C82.674 92.18 83.0553 91.3133 83.506 90.308C83.9567 89.268 84.39 88.228 84.806 87.188C85.222 86.1133 85.5167 85.1773 85.69 84.38C85.7247 84.2067 85.742 84.0507 85.742 83.912C85.7767 83.7733 85.794 83.6347 85.794 83.496C85.794 82.9413 85.6553 82.664 85.378 82.664C85.1007 82.664 84.7713 82.8547 84.39 83.236C83.9047 83.652 83.298 84.3107 82.57 85.212C81.8767 86.1133 81.166 87.1013 80.438 88.176C79.7447 89.216 79.138 90.2213 78.618 91.192C78.098 92.1627 77.7687 92.96 77.63 93.584C77.5953 93.896 77.3353 94.052 76.85 94.052C76.3993 94.052 76.0007 93.8787 75.654 93.532C75.3073 93.1853 75.134 92.7173 75.134 92.128C75.134 91.9893 75.2727 91.5907 75.55 90.932C75.8273 90.2733 76.1567 89.4933 76.538 88.592C76.954 87.6907 77.3527 86.8413 77.734 86.044C78.1153 85.212 78.41 84.5707 78.618 84.12C78.3753 83.912 78.254 83.7387 78.254 83.6C78.2887 83.4613 78.3233 83.3227 78.358 83.184L79.866 80.428C79.97 80.3587 80.2993 80.2373 80.854 80.064C81.4087 79.856 81.9113 79.752 82.362 79.752C82.9513 79.752 83.246 79.96 83.246 80.376C83.246 80.6187 83.1247 80.9653 82.882 81.416C82.7433 81.624 82.466 82.092 82.05 82.82C81.634 83.548 81.1833 84.3627 80.698 85.264C80.2127 86.1653 79.7793 86.98 79.398 87.708C79.0513 88.436 78.878 88.8867 78.878 89.06C78.878 89.1987 79.0167 89.06 79.294 88.644C79.606 88.228 79.97 87.708 80.386 87.084C80.8367 86.4253 81.2527 85.8013 81.634 85.212C82.05 84.588 82.362 84.1547 82.57 83.912C83.09 83.288 83.5407 82.716 83.922 82.196C84.338 81.676 84.8753 81.416 85.534 81.416C86.5393 81.416 87.2847 81.6587 87.77 82.144C88.2553 82.6293 88.498 83.184 88.498 83.808C88.498 84.3973 88.342 85.108 88.03 85.94C87.718 86.772 87.4233 87.5 87.146 88.124C87.3887 87.916 87.8047 87.4133 88.394 86.616C88.9833 85.784 89.642 84.9 90.37 83.964C91.098 83.028 91.7913 82.2133 92.45 81.52C93.1433 80.8267 93.698 80.48 94.114 80.48C94.6687 80.48 95.206 80.6187 95.726 80.896C96.246 81.1733 96.662 81.52 96.974 81.936C97.3207 82.352 97.4593 82.7853 97.39 83.236C97.1473 84.4147 96.7313 85.4373 96.142 86.304C95.5527 87.136 94.8593 88.124 94.062 89.268C93.3687 90.3427 92.6753 91.504 91.982 92.752C91.2887 94 90.942 95.1267 90.942 96.132C90.942 96.4093 90.9767 96.652 91.046 96.86C91.15 97.1027 91.2887 97.224 91.462 97.224C91.6353 97.224 91.8953 97.0853 92.242 96.808C92.5193 96.6 92.7793 96.3573 93.022 96.08C93.2993 95.8373 93.5593 95.6467 93.802 95.508C93.9753 95.3347 94.0967 95.248 94.166 95.248C94.374 95.248 94.3913 95.404 94.218 95.716C93.9407 96.34 93.6113 96.8773 93.23 97.328C92.8487 97.8133 92.3633 98.056 91.774 98.056ZM99.3124 94.572C98.7577 94.572 98.2897 94.3813 97.9084 94C97.5617 93.6533 97.3017 93.2373 97.1284 92.752C96.955 92.2667 96.8684 91.8507 96.8684 91.504C96.8684 90.3253 97.2324 89.0773 97.9604 87.76C98.6884 86.4427 99.6244 85.212 100.768 84.068C101.947 82.924 103.178 81.988 104.46 81.26C105.743 80.532 106.939 80.168 108.048 80.168C108.846 80.168 109.643 80.7053 110.44 81.78C110.51 81.884 110.579 82.0227 110.648 82.196C110.752 82.3693 110.804 82.5427 110.804 82.716C110.804 83.028 110.683 83.236 110.44 83.34C110.406 83.3747 110.319 83.2707 110.18 83.028C110.076 82.7507 109.712 82.612 109.088 82.612C108.499 82.612 107.719 82.8893 106.748 83.444C105.778 83.9987 104.755 84.7267 103.68 85.628C102.64 86.5293 101.687 87.5 100.82 88.54C99.9884 89.58 99.3817 90.5853 99.0004 91.556C98.931 91.7987 98.8617 92.0413 98.7924 92.284C98.723 92.5267 98.6884 92.7347 98.6884 92.908C98.6884 93.22 98.7924 93.376 99.0004 93.376C99.2084 93.376 99.4857 93.2547 99.8324 93.012C100.56 92.492 101.323 91.8507 102.12 91.088C102.918 90.2907 103.68 89.476 104.408 88.644C105.171 87.7773 105.812 86.9627 106.332 86.2C106.852 85.4373 107.182 84.8133 107.32 84.328C107.39 84.0507 107.788 83.912 108.516 83.912C109.106 83.912 109.608 84.0507 110.024 84.328C110.44 84.5707 110.544 84.848 110.336 85.16C109.712 86.096 109.106 87.084 108.516 88.124C107.927 89.1293 107.494 90.152 107.216 91.192C107.182 91.3307 107.147 91.452 107.112 91.556C107.112 91.66 107.112 91.7467 107.112 91.816C107.112 92.1627 107.251 92.336 107.528 92.336C107.84 92.336 108.187 92.18 108.568 91.868C109.296 91.1747 110.059 90.2907 110.856 89.216C111.688 88.1067 112.538 87.0147 113.404 85.94C113.716 85.5933 113.924 85.42 114.028 85.42C114.132 85.42 114.184 85.5067 114.184 85.68C114.184 85.8187 114.15 85.9573 114.08 86.096C113.942 86.4427 113.751 86.8067 113.508 87.188C113.266 87.5347 113.04 87.8467 112.832 88.124C112.659 88.3667 112.364 88.8 111.948 89.424C111.532 90.048 111.047 90.7067 110.492 91.4C109.938 92.0933 109.366 92.7 108.776 93.22C108.187 93.7053 107.632 93.948 107.112 93.948C106.384 93.948 105.795 93.7227 105.344 93.272C104.928 92.7867 104.72 92.3533 104.72 91.972C104.72 91.4867 104.738 91.1573 104.772 90.984C104.842 90.6373 104.946 90.2213 105.084 89.736C105.258 89.2507 105.414 88.7827 105.552 88.332C105.275 88.7133 104.859 89.2507 104.304 89.944C103.75 90.6373 103.143 91.348 102.484 92.076C101.86 92.7693 101.254 93.3587 100.664 93.844C100.075 94.3293 99.6244 94.572 99.3124 94.572ZM120.504 94.624C119.741 94.624 119.1 94.3987 118.58 93.948C118.095 93.4973 117.852 92.7867 117.852 91.816C117.852 90.984 117.991 90.152 118.268 89.32C118.545 88.4533 118.84 87.6733 119.152 86.98C119.499 86.2867 119.776 85.7667 119.984 85.42C120.747 83.9987 120.989 83.288 120.712 83.288C120.469 83.288 119.915 83.7387 119.048 84.64C118.216 85.5067 117.193 86.7373 115.98 88.332C114.905 89.7187 114.195 90.8107 113.848 91.608C113.501 92.3707 113.276 92.9947 113.172 93.48C113.137 93.792 112.877 93.948 112.392 93.948C112.011 93.948 111.629 93.792 111.248 93.48C110.867 93.1333 110.676 92.6653 110.676 92.076C110.676 91.9027 110.832 91.452 111.144 90.724C111.456 89.996 111.82 89.1467 112.236 88.176C112.687 87.2053 113.12 86.2867 113.536 85.42C113.952 84.5533 114.264 83.8947 114.472 83.444C114.056 83.2013 113.969 82.8893 114.212 82.508L115.72 79.752C115.824 79.6827 116.136 79.5613 116.656 79.388C117.211 79.18 117.713 79.076 118.164 79.076C118.788 79.076 119.1 79.284 119.1 79.7C119.1 79.908 118.961 80.2547 118.684 80.74C118.58 80.9133 118.337 81.3467 117.956 82.04C117.575 82.6987 117.141 83.4787 116.656 84.38C116.205 85.2467 115.772 86.0787 115.356 86.876C114.975 87.6387 114.697 88.2107 114.524 88.592C114.524 88.6267 114.507 88.6613 114.472 88.696C114.472 88.696 114.472 88.7133 114.472 88.748C114.472 88.8867 114.593 88.7653 114.836 88.384C115.113 88.0027 115.321 87.7253 115.46 87.552C116.5 86.1307 117.575 84.8133 118.684 83.6C119.828 82.3867 121.024 81.1907 122.272 80.012C122.515 80.1507 122.861 80.2373 123.312 80.272C123.797 80.3067 124.248 80.3933 124.664 80.532C125.08 80.636 125.288 80.9133 125.288 81.364C125.288 82.0573 124.993 82.8373 124.404 83.704C123.849 84.5707 123.225 85.4547 122.532 86.356C121.873 87.2227 121.249 88.2627 120.66 89.476C120.071 90.6893 119.776 91.712 119.776 92.544C119.776 93.2373 120.001 93.584 120.452 93.584C120.66 93.584 120.937 93.48 121.284 93.272C121.561 93.0987 122.099 92.6653 122.896 91.972C123.693 91.244 124.543 90.2387 125.444 88.956C125.721 88.54 125.999 88.332 126.276 88.332C126.415 88.332 126.501 88.4013 126.536 88.54C126.571 88.644 126.553 88.7827 126.484 88.956C124.057 92.7347 122.064 94.624 120.504 94.624ZM129.207 94.728C128.444 94.728 127.768 94.4333 127.179 93.844C126.59 93.2547 126.295 92.3533 126.295 91.14C126.295 90.308 126.486 89.3027 126.867 88.124C127.283 86.9107 127.786 85.68 128.375 84.432C128.999 83.1493 129.623 81.9533 130.247 80.844C130.906 79.7 131.46 78.764 131.911 78.036H129.727C129.207 78.036 128.947 77.8627 128.947 77.516C128.947 77.3427 129.016 77.1867 129.155 77.048C129.294 76.9093 129.45 76.84 129.623 76.84H132.691C132.83 76.632 133.038 76.2853 133.315 75.8C133.627 75.28 133.939 74.7253 134.251 74.136C134.598 73.512 134.875 72.9747 135.083 72.524C135.326 72.0733 135.447 71.796 135.447 71.692C135.447 71.484 135.36 71.3453 135.187 71.276C135.048 71.2067 134.944 71.1373 134.875 71.068C134.771 70.8947 134.719 70.7733 134.719 70.704C134.719 70.5307 134.806 70.4093 134.979 70.34C135.152 70.236 135.308 70.184 135.447 70.184C135.759 70.184 136.21 70.34 136.799 70.652C137.423 70.9293 138.012 71.224 138.567 71.536C139.156 71.8133 139.52 71.9693 139.659 72.004C139.52 72.2467 139.226 72.6973 138.775 73.356C138.324 73.98 137.874 74.6387 137.423 75.332C136.972 75.9907 136.643 76.4933 136.435 76.84L144.651 76.788C145.275 76.788 145.587 76.9093 145.587 77.152C145.587 77.3253 145.431 77.516 145.119 77.724C144.807 77.8973 144.495 78.0013 144.183 78.036C143.455 78.0707 142.519 78.1053 141.375 78.14C140.266 78.14 139.208 78.1573 138.203 78.192C137.232 78.2267 136.574 78.296 136.227 78.4C135.776 78.5387 135.256 78.972 134.667 79.7C134.112 80.3933 133.523 81.2427 132.899 82.248C132.31 83.2533 131.738 84.2933 131.183 85.368C130.628 86.4427 130.16 87.4307 129.779 88.332C129.398 89.1987 129.155 89.8573 129.051 90.308C128.982 90.62 128.93 90.9147 128.895 91.192C128.86 91.4347 128.843 91.66 128.843 91.868C128.843 92.3533 128.93 92.7 129.103 92.908C129.311 93.0813 129.536 93.168 129.779 93.168C130.23 93.168 130.628 92.9947 130.975 92.648C131.599 92.0933 132.379 91.2787 133.315 90.204C134.286 89.0947 135.17 88.0027 135.967 86.928C136.452 86.2347 136.782 85.888 136.955 85.888C137.128 85.888 137.128 86.1133 136.955 86.564C136.782 87.0147 136.504 87.5347 136.123 88.124C135.672 88.7827 135.1 89.632 134.407 90.672C133.714 91.6773 132.968 92.5787 132.171 93.376C131.27 94.2773 130.282 94.728 129.207 94.728Z" fill="black"/>
</svg>
