<svg width="52" height="52" viewBox="0 0 52 52" fill="none" xmlns="http://www.w3.org/2000/svg">
<path d="M12.9942 43.2019H0V21.5H12.9942V25.9885H4.48847V38.7133H12.9942V43.2019ZM12.9942 34.6064H2.24423V30.1179H12.9942V34.6064ZM30.2076 43.2019H26.8099L16.0599 25.9884H15.1487V21.4999H18.5465L29.2965 38.7133H30.2076V43.2019ZM18.5465 43.2019H15.1487V38.7133H16.0599L26.8099 21.5H30.2076V25.9885H29.2965L18.5465 43.2019ZM36.7385 43.1121H32.2499V21.5898H36.7385V43.1121ZM51.7076 25.9885H38.8031V21.5H51.7076V25.9885ZM47.5109 43.1121H43.0223V23.7442H47.5109V43.1121ZM51.7076 51.7974H0.0897855V47.3089H51.7076V51.7974ZM51.7076 17.3929H0.0897855V12.9044H51.7076V17.3929ZM37.3669 16.8723L25.8987 7.32078L14.4305 16.8722L11.5579 13.4251L25.8987 1.47668L40.2395 13.4229L37.3669 16.8723ZM25.8987 0C28.3281 0 30.2974 1.96936 30.2974 4.39873C30.2974 6.8281 28.3281 8.79746 25.8987 8.79746C23.4693 8.79746 21.5 6.8281 21.5 4.39873C21.5025 1.97043 23.4704 0.00252917 25.8984 0H25.8987Z" fill="black"/>
</svg>
