<svg width="58" height="57" viewBox="0 0 58 57" fill="none" xmlns="http://www.w3.org/2000/svg">
<path d="M55.3647 47.3109L50.625 48.4312C49.5622 48.6897 48.7291 49.4941 48.4993 50.5569L47.4939 54.7796C46.9481 57.0776 44.0181 57.7958 42.4957 55.986L33.9067 46.1044C33.2173 45.3001 33.5907 44.0362 34.6248 43.7777C39.7093 42.5425 44.2766 39.6986 47.6375 35.6483C48.1833 34.9876 49.16 34.9015 49.7632 35.5047L56.1403 41.8818C58.3235 44.0649 57.5479 46.7939 55.3647 47.3109Z" fill="white"/>
<path d="M2.07578 47.3109L6.8155 48.4312C7.87835 48.6897 8.71139 49.4941 8.9412 50.5569L9.94659 54.7796C10.4924 57.0776 13.4224 57.7958 14.9448 55.986L23.5338 46.1044C24.2232 45.3001 23.8498 44.0362 22.8157 43.7777C17.7312 42.5425 13.1639 39.6986 9.80297 35.6483C9.25718 34.9876 8.28051 34.9015 7.67727 35.5047L1.30019 41.8818C-0.882957 44.0649 -0.107366 46.7939 2.07578 47.3109Z" fill="white"/>
<path d="M28.793 0C17.6762 0 8.68506 8.99111 8.68506 20.1079C8.68506 24.2731 9.92026 28.0936 12.046 31.2822C15.1483 35.8783 20.0604 39.1243 25.7768 39.9573C26.7535 40.1297 27.7589 40.2158 28.793 40.2158C29.8271 40.2158 30.8325 40.1297 31.8092 39.9573C37.5256 39.1243 42.4376 35.8783 45.54 31.2822C47.6657 28.0936 48.9009 24.2731 48.9009 20.1079C48.9009 8.99111 39.9098 0 28.793 0ZM37.583 19.476L35.1988 21.8602C34.7966 22.2623 34.5668 23.0379 34.7105 23.6124L35.3999 26.5712C35.9457 28.898 34.7105 29.8172 32.6422 28.582L29.7696 26.8872C29.2526 26.5712 28.3908 26.5712 27.8738 26.8872L25.0012 28.582C22.933 29.7884 21.6978 28.898 22.2435 26.5712L22.933 23.6124C23.0479 23.0667 22.8468 22.2623 22.4446 21.8602L20.0029 19.476C18.5954 18.0684 19.055 16.6608 21.0083 16.3449L24.082 15.8278C24.599 15.7416 25.2023 15.282 25.4321 14.8224L27.1269 11.4328C28.0461 9.59435 29.5398 9.59435 30.4591 11.4328L32.1539 14.8224C32.3837 15.282 32.9869 15.7416 33.5327 15.8278L36.6063 16.3449C38.531 16.6608 38.9906 18.0684 37.583 19.476Z" fill="white"/>
</svg>
