<svg width="194" height="163" viewBox="0 0 194 163" fill="none" xmlns="http://www.w3.org/2000/svg">
<path d="M141.106 162.273H52.6933C37.6256 162.273 25.1167 151.316 22.7007 136.934L22.6761 136.756L8.72478 52.6861H185.159L171.208 136.756C168.768 151.316 156.258 162.273 141.191 162.273H141.101H141.106ZM52.8372 149.628H141.151C149.977 149.628 157.303 143.21 158.717 134.786L158.731 134.682L170.28 65.3308H23.6031L35.1519 134.682C36.5805 143.21 43.9066 149.628 52.7321 149.628H52.7813H52.7787L52.8372 149.628ZM193.884 65.3306H0V52.6859H193.884V65.3306ZM62.8858 75.1933H50.2414V57.7101L74.9483 0L86.5728 4.98191L62.8855 60.3063L62.8858 75.1933ZM143.643 75.1933H130.998V60.3065L107.319 5.05803L118.935 0.000189236L143.643 57.7102V75.1933ZM103.264 131.757H90.62V91.3787H103.265L103.264 131.757ZM70.9784 131.757H58.3337V91.3787H70.9784V131.757ZM135.55 131.757H122.906V91.3787H135.55V131.757Z" fill="#FF4B4B"/>
</svg>
