<svg width="1016" height="591" viewBox="0 0 1016 591" fill="none" xmlns="http://www.w3.org/2000/svg">
<rect width="1016" height="591" rx="20" fill="#FF4B4B"/>
<path fill-rule="evenodd" clip-rule="evenodd" d="M308.786 42L357.429 106.857L227.714 269L98 106.857L146.789 42H308.786Z" stroke="#FD0000" stroke-width="3.41" stroke-linecap="round" stroke-linejoin="round"/>
<path d="M98 106.856H357.429" stroke="#FD0000" stroke-width="3.41" stroke-linecap="round" stroke-linejoin="round"/>
<path d="M179.072 106.856L227.715 268.999" stroke="#FD0000" stroke-width="3.41" stroke-linecap="round" stroke-linejoin="round"/>
<path d="M276.356 106.856L227.714 268.999" stroke="#FD0000" stroke-width="3.41" stroke-linecap="round" stroke-linejoin="round"/>
<path d="M146.786 42L179.068 106.857L227.711 42L276.354 106.857L308.783 42" stroke="#FD0000" stroke-width="3.41" stroke-linecap="round" stroke-linejoin="round"/>
<path fill-rule="evenodd" clip-rule="evenodd" d="M146.643 550L97.9999 485.143L227.714 323L357.428 485.143L308.64 550H146.643Z" stroke="#FD0000" stroke-width="3.41" stroke-linecap="round" stroke-linejoin="round"/>
<path d="M357.428 485.144H97.9999" stroke="#FD0000" stroke-width="3.41" stroke-linecap="round" stroke-linejoin="round"/>
<path d="M276.356 485.144L227.714 323.001" stroke="#FD0000" stroke-width="3.41" stroke-linecap="round" stroke-linejoin="round"/>
<path d="M179.072 485.144L227.715 323.001" stroke="#FD0000" stroke-width="3.41" stroke-linecap="round" stroke-linejoin="round"/>
<path d="M308.643 550L276.36 485.143L227.717 550L179.074 485.143L146.646 550" stroke="#FD0000" stroke-width="3.41" stroke-linecap="round" stroke-linejoin="round"/>
<path fill-rule="evenodd" clip-rule="evenodd" d="M868.786 42L917.429 106.857L787.714 269L658 106.857L706.789 42H868.786Z" stroke="#FD0000" stroke-width="3.41" stroke-linecap="round" stroke-linejoin="round"/>
<path d="M658 106.856H917.429" stroke="#FD0000" stroke-width="3.41" stroke-linecap="round" stroke-linejoin="round"/>
<path d="M739.072 106.856L787.715 268.999" stroke="#FD0000" stroke-width="3.41" stroke-linecap="round" stroke-linejoin="round"/>
<path d="M836.356 106.856L787.714 268.999" stroke="#FD0000" stroke-width="3.41" stroke-linecap="round" stroke-linejoin="round"/>
<path d="M706.786 42L739.068 106.857L787.711 42L836.354 106.857L868.783 42" stroke="#FD0000" stroke-width="3.41" stroke-linecap="round" stroke-linejoin="round"/>
<path fill-rule="evenodd" clip-rule="evenodd" d="M706.643 550L658 485.143L787.714 323L917.428 485.143L868.64 550H706.643Z" stroke="#FD0000" stroke-width="3.41" stroke-linecap="round" stroke-linejoin="round"/>
<path d="M917.428 485.144H658" stroke="#FD0000" stroke-width="3.41" stroke-linecap="round" stroke-linejoin="round"/>
<path d="M836.356 485.144L787.714 323.001" stroke="#FD0000" stroke-width="3.41" stroke-linecap="round" stroke-linejoin="round"/>
<path d="M739.072 485.144L787.715 323.001" stroke="#FD0000" stroke-width="3.41" stroke-linecap="round" stroke-linejoin="round"/>
<path d="M868.643 550L836.36 485.143L787.717 550L739.074 485.143L706.646 550" stroke="#FD0000" stroke-width="3.41" stroke-linecap="round" stroke-linejoin="round"/>
<path fill-rule="evenodd" clip-rule="evenodd" d="M588.786 42L637.429 106.857L507.714 269L378 106.857L426.789 42H588.786Z" stroke="#FD0000" stroke-width="3.41" stroke-linecap="round" stroke-linejoin="round"/>
<path d="M378 106.856H637.429" stroke="#FD0000" stroke-width="3.41" stroke-linecap="round" stroke-linejoin="round"/>
<path d="M459.072 106.856L507.715 268.999" stroke="#FD0000" stroke-width="3.41" stroke-linecap="round" stroke-linejoin="round"/>
<path d="M556.356 106.856L507.714 268.999" stroke="#FD0000" stroke-width="3.41" stroke-linecap="round" stroke-linejoin="round"/>
<path d="M426.786 42L459.068 106.857L507.711 42L556.354 106.857L588.783 42" stroke="#FD0000" stroke-width="3.41" stroke-linecap="round" stroke-linejoin="round"/>
<path fill-rule="evenodd" clip-rule="evenodd" d="M426.643 550L378 485.143L507.714 323L637.428 485.143L588.64 550H426.643Z" stroke="#FD0000" stroke-width="3.41" stroke-linecap="round" stroke-linejoin="round"/>
<path d="M637.428 485.144H378" stroke="#FD0000" stroke-width="3.41" stroke-linecap="round" stroke-linejoin="round"/>
<path d="M556.356 485.144L507.714 323.001" stroke="#FD0000" stroke-width="3.41" stroke-linecap="round" stroke-linejoin="round"/>
<path d="M459.072 485.144L507.715 323.001" stroke="#FD0000" stroke-width="3.41" stroke-linecap="round" stroke-linejoin="round"/>
<path d="M588.643 550L556.36 485.143L507.717 550L459.074 485.143L426.646 550" stroke="#FD0000" stroke-width="3.41" stroke-linecap="round" stroke-linejoin="round"/>
</svg>
