<svg width="63" height="52" viewBox="0 0 63 52" fill="none" xmlns="http://www.w3.org/2000/svg">
<path d="M45.217 52H16.8855C12.0571 52 8.0486 48.4888 7.27441 43.8803L7.26652 43.8232L2.79584 16.8832H59.334L54.8634 43.8232C54.0813 48.4888 50.0728 52 45.2444 52H45.2156H45.217ZM16.9316 47.948H45.2317C48.0597 47.948 50.4074 45.8913 50.8605 43.1921L50.8652 43.1587L54.566 20.9351H7.56358L11.2644 43.1587C11.7222 45.8914 14.0698 47.9481 16.8979 47.9481H16.9137H16.9128L16.9316 47.948ZM62.1298 20.9351H0V16.8831H62.1298V20.9351ZM20.1517 24.0956H16.0998V18.4931L24.0171 0L27.7421 1.59645L20.1515 19.325L20.1517 24.0956ZM46.0301 24.0956H41.9781V19.3251L34.3901 1.62084L38.1125 6.06403e-05L46.0301 18.4932V24.0956ZM33.0908 42.2212H29.039V29.2821H33.091L33.0908 42.2212ZM22.7449 42.2212H18.6929V29.2821H22.7449V42.2212ZM43.4369 42.2212H39.3849V29.2821H43.4369V42.2212Z" fill="black"/>
</svg>
