<svg width="161" height="160" viewBox="0 0 161 160" fill="none" xmlns="http://www.w3.org/2000/svg">
<path d="M154.643 132.148L141.404 135.277C138.435 135.999 136.109 138.246 135.467 141.215L132.658 153.009C131.134 159.428 122.95 161.434 118.697 156.379L94.7072 128.778C92.7815 126.531 93.8246 123.001 96.7131 122.279C110.915 118.829 123.672 110.886 133.06 99.5725C134.584 97.7271 137.312 97.4864 138.997 99.1713L156.809 116.984C162.907 123.081 160.741 130.704 154.643 132.148Z" fill="#FF4B4B"/>
<path d="M5.79798 132.148L19.0368 135.277C22.0055 135.999 24.3323 138.246 24.9742 141.215L27.7824 153.009C29.3069 159.428 37.4909 161.434 41.7433 156.379L65.7337 128.778C67.6593 126.531 66.6163 123.001 63.7277 122.279C49.5261 118.829 36.7687 110.886 27.3812 99.5725C25.8568 97.7271 23.1288 97.4864 21.4438 99.1713L3.63163 116.984C-2.46624 123.081 -0.299889 130.704 5.79798 132.148Z" fill="#FF4B4B"/>
<path d="M80.4234 0C49.3724 0 24.2588 25.1136 24.2588 56.1646C24.2588 67.7987 27.7089 78.4699 33.6463 87.376C42.3117 100.214 56.0319 109.28 71.9987 111.607C74.7267 112.088 77.5349 112.329 80.4234 112.329C83.3118 112.329 86.1201 112.088 88.8481 111.607C104.815 109.28 118.535 100.214 127.2 87.376C133.138 78.4699 136.588 67.7987 136.588 56.1646C136.588 25.1136 111.474 0 80.4234 0ZM104.975 54.3994L98.3158 61.0589C97.1925 62.1822 96.5506 64.3486 96.9518 65.9533L98.8774 74.2175C100.402 80.7165 96.9518 83.284 91.1749 79.8339L83.1514 75.1001C81.7071 74.2175 79.3001 74.2175 77.8559 75.1001L69.8323 79.8339C64.0554 83.2038 60.6053 80.7165 62.1298 74.2175L64.0554 65.9533C64.3764 64.4288 63.8147 62.1822 62.6914 61.0589L55.8714 54.3994C51.9399 50.4679 53.2237 46.5364 58.6797 45.6538L67.2648 44.2096C68.709 43.9688 70.394 42.6851 71.0359 41.4013L75.7697 31.9336C78.3373 26.7985 82.5095 26.7985 85.077 31.9336L89.8109 41.4013C90.4528 42.6851 92.1377 43.9688 93.6622 44.2096L102.247 45.6538C107.623 46.5364 108.907 50.4679 104.975 54.3994Z" fill="#FF4B4B"/>
</svg>
