<svg width="145" height="145" viewBox="0 0 145 145" fill="none" xmlns="http://www.w3.org/2000/svg">
<path d="M72.2132 0C32.3212 0 0 32.3212 0 72.2132C0 112.105 32.3212 144.426 72.2132 144.426C112.105 144.426 144.426 112.105 144.426 72.2132C144.426 32.3212 112.105 0 72.2132 0ZM72.2132 27.9535C86.3647 27.9535 97.8372 39.4261 97.8372 53.5775C97.8372 67.729 86.3647 79.2016 72.2132 79.2016C58.0617 79.2016 46.5892 67.729 46.5892 53.5775C46.5892 39.4261 58.0617 27.9535 72.2132 27.9535ZM72.2132 128.12C55.1208 128.12 39.8046 120.375 29.555 108.262C35.0292 97.9537 45.7447 90.8489 58.2365 90.8489C58.9353 90.8489 59.6341 90.9653 60.3039 91.1692C64.0892 92.3921 68.0493 93.1783 72.2132 93.1783C76.3771 93.1783 80.3663 92.3921 84.1226 91.1692C84.7923 90.9653 85.4911 90.8489 86.19 90.8489C98.6817 90.8489 109.397 97.9537 114.871 108.262C104.622 120.375 89.3056 128.12 72.2132 128.12Z" fill="#FF4B4B"/>
</svg>
